<?xml version="1.0" encoding="UTF-8"?>
<svg id="Layer_1" xmlns="http://www.w3.org/2000/svg" viewBox="0 0 816 780">
  <defs>
    <style>
      .cls-1, .cls-2, .cls-3, .cls-4, .cls-5, .cls-6, .cls-7, .cls-8, .cls-9, .cls-10, .cls-11, .cls-12, .cls-13, .cls-14, .cls-15, .cls-16, .cls-17, .cls-18, .cls-19, .cls-20, .cls-21, .cls-22, .cls-23, .cls-24, .cls-25, .cls-26 {
        stroke: #231f20;
      }

      .cls-1, .cls-2, .cls-3, .cls-5, .cls-6, .cls-9, .cls-10, .cls-11, .cls-16, .cls-17, .cls-19, .cls-21, .cls-22, .cls-23, .cls-24, .cls-25, .cls-26 {
        stroke-linejoin: round;
      }

      .cls-1, .cls-2, .cls-6, .cls-10, .cls-17, .cls-20, .cls-22, .cls-25 {
        stroke-linecap: round;
      }

      .cls-1, .cls-2, .cls-17 {
        fill: #ffd751;
      }

      .cls-1, .cls-6, .cls-8, .cls-13, .cls-14, .cls-22 {
        stroke-width: 7.01px;
      }

      .cls-27 {
        fill: #afbf5b;
      }

      .cls-2 {
        stroke-width: 4.38px;
      }

      .cls-3, .cls-28, .cls-16, .cls-19 {
        fill: #006838;
      }

      .cls-3, .cls-18, .cls-23 {
        stroke-width: 10.59px;
      }

      .cls-4, .cls-7, .cls-8, .cls-12, .cls-13, .cls-14, .cls-15, .cls-18, .cls-20 {
        stroke-miterlimit: 10;
      }

      .cls-4, .cls-7, .cls-18 {
        fill: #fff;
      }

      .cls-4, .cls-16, .cls-24 {
        stroke-width: 10.49px;
      }

      .cls-29 {
        fill: #c4df66;
      }

      .cls-5, .cls-7, .cls-10, .cls-11, .cls-12, .cls-15, .cls-19, .cls-20, .cls-25, .cls-26 {
        stroke-width: 15.73px;
      }

      .cls-5, .cls-30, .cls-31, .cls-32, .cls-23, .cls-24, .cls-25 {
        fill: #231f20;
      }

      .cls-33 {
        fill: #a9c626;
      }

      .cls-6 {
        fill: #26a9e0;
      }

      .cls-34 {
        fill: #84a22d;
      }

      .cls-30 {
        font-family: Raleway-Italic, 'Raleway Italic';
        font-size: 13.72px;
        font-style: italic;
      }

      .cls-8, .cls-11, .cls-20 {
        fill: none;
      }

      .cls-9, .cls-15 {
        fill: #c38e52;
      }

      .cls-9, .cls-21 {
        stroke-width: 7.87px;
      }

      .cls-10, .cls-12 {
        fill: #fff0d8;
      }

      .cls-32 {
        font-family: Raleway-Bold, 'Raleway Bold';
        font-size: 38.26px;
        font-weight: 700;
      }

      .cls-13 {
        fill: #bb3535;
      }

      .cls-35 {
        fill: #8db729;
      }

      .cls-36 {
        fill: #5f8720;
      }

      .cls-14 {
        fill: #eec768;
      }

      .cls-17 {
        stroke-width: 6.13px;
      }

      .cls-37 {
        fill: #72a128;
      }

      .cls-21, .cls-26 {
        fill: #ffe188;
      }

      .cls-22 {
        fill: #c9b12e;
      }

      .cls-38 {
        fill: #507820;
      }

      .cls-39 {
        fill: #fadf30;
      }
    </style>
  </defs>
  <path class="cls-39" d="M357.34,722.91c14.82,5.71,13.8,38.21-.59,28.76-8.58-5.64-7.27-10.48-7.71-13.18-1.02-6.27-1.02-10.76,1-13.42,1.6-2.11,4.35-3.3,7.3-2.16Z"/>
  <path class="cls-39" d="M270.8,701.62c15.53-2.57,39.51,22.49,21.45,22.02-10.77-.28-13.46-4.55-15.85-6.39-5.54-4.27-8.96-7.67-9.46-10.61-.4-2.34.77-4.52,3.87-5.03Z"/>
  <path class="cls-39" d="M476.59,703.58c9.84-10.38,40.49-4.37,27.21,5.08-7.92,5.64-12.14,3.86-14.84,3.76-6.27-.23-10.55-.96-12.48-2.92-1.53-1.56-1.85-3.85.11-5.92Z"/>
  <path class="cls-34" d="M583.16,695.97c3.23,7.99-.82,22.55-8.41,33.02-3.57,4.92-21.44,19.02-18.04-.47,4.76-14.02,13.98-24.98,22.46-31.61.69-.54,3.78-.81,3.99-.94Z"/>
  <path class="cls-34" d="M456.88,722.95c1.54,6.64-2.95,18.93-9.64,27.83-3.14,4.19-17.78,16.32-13.24-.09,4.97-11.84,12.9-21.19,19.84-26.89.57-.47,2.87-.74,3.04-.86Z"/>
  <path class="cls-34" d="M347.03,721.79c-6.05,12.55-21.03,16.77-33.65,11.01-5.94-2.71-25.97-24.82-6.73-34.26,14.76-2.43,28.48,5.98,37.93,16.52.77.86,2.24,6.44,2.45,6.73Z"/>
  <path class="cls-33" d="M273.99,718.21c-.31.43-7.31,6.89-7.75,7.19-7.91,5.33-14.8,4.63-22.4-.84-13.2-9.48-14.29-16.92,2.14-24.62,10.83-5.07,34.01,10,28,18.27Z"/>
  <path class="cls-33" d="M418.13,742.31c-.03.41-1.49,7.82-1.61,8.22-2.17,7.25-5.48,10.53-10.35,11.47-8.47,1.65-10.92-2-5.52-15.15,3.56-8.66,18.02-12.46,17.48-4.55Z"/>
  <path class="cls-33" d="M332.82,704.7c.38.16,6.83,4.1,7.16,4.35,6.01,4.61,7.77,9.06,6.67,14.35-1.91,9.19-6.38,10.49-16.67.64-6.78-6.49-4.46-22.5,2.85-19.35Z"/>
  <path class="cls-33" d="M518.73,688.53c.38.16,6.83,4.1,7.16,4.35,6.01,4.61,7.77,9.06,6.67,14.35-1.91,9.19-6.38,10.49-16.67.64-6.78-6.49-4.46-22.5,2.85-19.35Z"/>
  <path class="cls-27" d="M547.4,728.29c-.04.89-2.6,8.59-2.81,9.01-6.3,12.36-18.55,15.31-25.03,7.76.5-.84-.53-6.06,10.43-14.19,3.43-2.54,17.66-7.81,17.42-2.58Z"/>
  <path class="cls-27" d="M290.46,723.11c.74-.6,8.49-3.19,8.96-3.24,13.8-1.54,23.69,10.89,21.61,24.14-.98.01-4.54,5.07-17.79-2.04-4.15-2.22-17.12-15.33-12.78-18.86Z"/>
  <path class="cls-27" d="M589.53,706.94c.74-.6,8.49-3.19,8.96-3.24,13.8-1.54,23.69,10.89,21.61,24.14-.98.01-4.54,5.07-17.79-2.04-4.15-2.22-17.12-15.33-12.78-18.86Z"/>
  <path class="cls-27" d="M382.33,687.02c.41.8,1.98,8.75,1.99,9.23.57,13.87-8.83,22.45-18.34,19.07.03-.98-3.49-5.02,2.18-17.48,1.77-3.9,11.78-15.49,14.17-10.82Z"/>
  <path class="cls-27" d="M493.6,749.35c-.8.41-8.75,1.98-9.23,1.99-13.87.57-22.45-8.83-19.07-18.34.98.03,5.02-3.49,17.48,2.18,3.9,1.77,15.49,11.78,10.82,14.17Z"/>
  <g>
    <g>
      <path class="cls-38" d="M51.12,302.65c7.17,4.89,9.78,11.77,16.67,3.13-1.11,4.51,4.68,9.99,4.17,10.94-.84,1.55-23.02,7.61-6.25,27.61-6.82,8.9-13.68,12.76-3.13,27.61-21.3,16.76-2.37,25.43-2.08,27.09.26,1.5-13.81,13.6-1.04,27.09-7.3,8.41-11.07,26.67,3.13,29.17-9.13,8.54-14.64,31.31,2.08,33.34-16.86,12.58-7.12,33.04,13.55,34.38-12.11,16.71-14.64,41.32,12.5,39.59-8.2,17.26,6.99,35.31,25.01,31.26-7.49,17.16,12.51,49.45,30.74,36.99.16,20.09,20.64,43.4,40.64,30.22-2.26,32.8,28.18,49.79,55.22,32.3,6.61,20.53,37.71,29.81,53.14,13.55,5.17,20.4,39.28,31.62,54.18,13.55,11.37,25.29,40.44,14.79,53.14-4.17,7.03,25.36,57.91,29.83,56.27-2.08,13.07,17.24,42.22,18.31,45.85-6.25,14.56,17.66,43.48,18.26,44.8-8.34,11.94,18.9,50.22,15.68,44.8-11.46,19.64,8.66,55.58-2.73,41.68-28.13,15.75.29,40.9-12.23,35.43-31.26,18.19,9.15,45.95-21.09,30.74-38.03,16.5-.37,37.65-25.28,27.09-39.59,17.69-5.55,29.83-29.52,18.76-45.85,15.5-10.45,24.12-34.13,8.34-47.93,16.23-10.78,22.08-35.92,2.08-45.85,11.15-11.26,15.34-30.94-2.08-37.51,17.16-31.69-3.89-30.34-4.17-32.3,2.2-1.86,5.86-6.28,6.25-8.86,2.14-14.06-13.2-16.03-13.55-17.19-.17-.56,5.15-5.21,4.17-10.94,10.19,18.07,14.77-1.17,15.63-2.08,25.95-1.93,35.65,31.86,11.46,42.2,32.17.42,36.46,38.98,7.29,50.01,29.41,4.85,31.46,39.61,3.13,48.97,23.08,16.27,13.68,44.92-11.46,53.14,22.07,14.59,11.02,48.21-14.59,51.06,14.43,28.17-1.12,54.36-33.34,46.89,17.16,13.51,9.35,42.53-11.98,45.32-11.52,1.51-19.95-4.78-20.32-1.56,17.28,27.04-9.09,53.98-36.99,38.03,11.35,16.22-.53,38.49-20.32,37.51-6.13-1.62-11.16-1.94-16.15-7.29,9.74,24.23-14.29,41.4-31.26,20.84,5.3,27.05-26.47,33.27-36.47,9.38-1.73,24.79-31.54,30.25-42.72,7.29-9.89,24.17-35.74,25.39-47.93,2.08-1.64,22.72-34.21,32.92-44.8,10.42-8.61,20.63-34.26,17.67-37.51-5.21-9.4,26.98-41.78,22.85-44.8-6.25-8.89,21.58-36.71,19.96-40.64-3.13-16.01,21.4-39.56,14.59-42.72-11.46-12.8,27.13-47.35,12.42-38.55-15.63-8.64,8.94-24.69,8.36-32.82-1.04-8.74-10.11-3.52-23.48-4.69-23.96-19.18,26.33-53.76.8-37.51-26.05-25.95,12.17-48.49-11.18-39.07-38.03-26.39-2.71-40.3-23.79-27.09-47.93-31.25,3.94-43.57-26.78-23.96-50.01-17.91.25-31.37-10.11-28.13-29.17,2.1-12.38,19.13-17.44,18.76-18.76-29.1,1.51-35.36-29.91-9.38-43.76-28.9-4.01-27.82-38.68,1.04-42.72-27.9-10.14-21.3-46.92,8.34-46.89-24.99-11.47-16.03-45.92,11.46-44.28Z"/>
      <path class="cls-37" d="M699.21,257.85c5.62,24.13,23.33-4.3,15.63,27.61,8.74,18.33,25.74-.01,6.25,28.13,14.06,7.17,9.1,17.48,15.11,19.28,9.15,2.74,14.86-9.61,16.67-9.38,3,.38,3.05,10.18,5.73,9.38-.39,2.58-4.05,6.99-6.25,8.86.28,1.96,21.33.61,4.17,32.3,17.43,6.57,13.23,26.25,2.08,37.51,20,9.92,14.14,35.07-2.08,45.85,15.78,13.8,7.17,37.48-8.34,47.93,11.08,16.32-1.06,40.3-18.76,45.85,10.56,14.31-10.59,39.22-27.09,39.59,15.21,16.94-12.55,47.18-30.74,38.03,5.48,19.03-19.67,31.55-35.43,31.26,13.91,25.4-22.04,36.79-41.68,28.13,5.42,27.15-32.86,30.37-44.8,11.46-1.32,26.6-30.25,25.99-44.8,8.34-3.63,24.56-32.78,23.49-45.85,6.25,1.65,31.92-49.24,27.44-56.27,2.08-12.7,18.96-41.77,29.46-53.14,4.17-14.91,18.08-49.01,6.86-54.18-13.55-15.43,16.26-46.53,6.99-53.14-13.55-27.05,17.49-57.48.5-55.22-32.3-19.99,13.18-40.47-10.13-40.64-30.22-18.23,12.46-38.22-19.83-30.74-36.99-18.02,4.06-33.21-13.99-25.01-31.26-27.15,1.72-24.61-22.89-12.5-39.59-20.67-1.35-30.4-21.8-13.55-34.38-16.72-2.03-11.22-24.8-2.08-33.34-14.2-2.51-10.42-20.77-3.13-29.17-12.76-13.49,1.3-25.6,1.04-27.09-.29-1.66-19.21-10.33,2.08-27.09-10.56-14.86-3.69-18.71,3.13-27.61.11-.14,3.09-.14,3.13-1.56.03-1.03-11.72-9.36-.52-17.19,19.08,11.51,11.87-7.29,25.53-15.11-21.07-24.97-.78-8.3,8.34-22.92,5.72-9.18-2.64-13.89,11.46-8.86.74,3.57,6.36,7.33,6.25,7.81-.27,1.19-16.67,5.26-3.13,18.76-20.44,6.89,1.82,17.06-10.42,26.57-1.29,1-22.31,2.48-9.38,23.44-14.88,1.58-15.48,16.56-2.08,21.88-13.67,4.13-15.84,17.74-3.13,25.01-13.95,4.18-11.69,19.36,1.04,25.01-8.15,9.11-3.32,20.27,8.34,22.92-16.34,8.73-10.96,26.87,7.29,27.09-14.27,8.25-12.48,23.2,3.13,27.09-10.4,13.1-3.08,22.5,11.46,26.05-7.13,13.21,3.58,21.36,16.67,20.84-14.76,13.22-2.8,29.07,16.67,25.01-6.76,15.8,1.81,31.01,19.28,26.57-3.03,14.07,7.06,23.09,20.32,23.44-8.28,14.23,9.56,27.81,22.4,18.23,2.58,19.89,20.21,25.88,33.34,10.42,5.12,11.87,20.38,17.18,29.17,6.25,10.4,23.72,26.72,7.26,28.13,8.34,3.44,17.75,22.94,18.84,33.34,5.21,4.11,15.04,22.33,18.52,30.22,4.17,22.23,24.58,34.49-.89,36.47,0,6.82,16.27,26.51,14.26,33.34-1.04,8.17,13.17,27.43,13.94,32.3-2.08,23.32,19.53,28.32-4.08,30.22-4.17,1.67-.08,10.43,19.04,27.09-2.08,10.46,12.57,29.09,12.41,32.3-5.21,11.36,8,29.45,1.54,24.49-14.07,1.39-1.69,17.67,5.88,23.44-13.02,16.22,10.09,24.76-5.39,15.11-20.32,16.29,1.48,23.55-8.1,17.19-23.44,18.09,5.48,28.12-8.74,21.36-25.53,1.34-1.63,27.26,4.92,17.71-28.13,17.29.19,26.92-11.65,16.67-27.09,18.57-1.21,25.07-22.78,7.29-31.26,12.11-7.84,13.86-20.05,2.08-29.17,18.23-.59,22.63-15.65,8.34-27.09,26.62-8.87,7.29-22.26,7.29-23.96,0-1.61,19.68-11.34,0-26.05,17.65-19.38-2.29-20.62-3.13-21.88-.8-1.2,7.82-20.75-10.42-20.32-3.35-3.93-9.06-3.97-9.38-4.69-.54-1.2,14.16-12.01-4.17-20.84,8.32-7.55,6.31-16.44-4.17-20.84,12.19-18.28-7.08-21.45-7.29-22.92-.39-2.69,8.64-8.94,12.5-5.73Z"/>
      <path class="cls-35" d="M106.34,331.83c3.68,7.28,9.23,9.23,9.38,9.9.42,1.85-26.84,14.73-1.04,28.13.58,1.76-23.86,15.1,0,29.17-13.79,11.82-6.56,23.73,10.42,25.01-14.84,12.62-10.11,30.11,9.38,33.34-13.93,10.47-11.65,25.53,5.21,29.17-14.26,12.45-7.1,27.14,10.42,30.22-11.73,14.34,2.23,30.09,19.28,24.49.45,31.4,24.58,16.47,25.53,18.23-10.89,18.18.34,31.16,19.8,33.34-9.58,11.99,4.81,27,16.15,17.19,2.42,16.45,12.92,23.94,27.09,13.55-3.08,13.18,13.69,22.98,22.92,12.5,8.98,24.77,24.35,5.89,26.05,6.25,1.71.36,9.27,22.08,28.13,3.13,5.1,9.68,16.89,12.05,22.92,2.08,5.18,15.56,19.25,20.59,30.22,7.29,4.19,13.85,16.66,12.8,26.05,4.17,6.3,16.98,28.25,14.09,32.3-3.13,8.59,3.41,15.39,1,17.71-8.34,7.54,9.48,17.49,11.24,23.96,0,20.44,14.72,27.49-3.86,29.17-4.17,1.53-.28,10.78,15.29,27.09,0,11.37,10.03,21.37,4.46,20.84-10.42,1.42-1.01,25.06,7.9,19.28-18.23,22.97.16,15.79-21.41,17.19-22.4,12.28,1.97,24.42-8.24,18.23-20.32,15.43.73,24.36-8.31,16.67-22.92,15.79.13,26.15-8.57,17.71-23.96,13.35,2.75,24.86-13.36,14.59-23.96,18.53-2.29,25.03-16.23,10.42-29.17,15.49-2.63,18.05-16.24,7.29-27.09,14.05-3.46,17.4-14.51,6.25-23.96,15.5-1.93,18.98-13.64,8.34-25.01,11.94-6.52,12.06-20.58-1.04-25.01,18.69-5.64,9.16-17.84,9.38-19.8.11-1.02,10.07-8.84,2.08-18.23,18.24-.44,9.62,19.12,10.42,20.32.84,1.26,20.78,2.5,3.13,21.88,19.68,14.71,0,24.43,0,26.05,0,1.7,19.33,15.09-7.29,23.96,14.29,11.44,9.89,26.51-8.34,27.09,11.78,9.12,10.02,21.33-2.08,29.17,17.78,8.48,11.27,30.04-7.29,31.26,10.25,15.44.62,27.28-16.67,27.09,9.54,33.05-16.38,26.51-17.71,28.13,6.76,16.79-3.27,31-21.36,25.53,6.36,15.35-.9,24.93-17.19,23.44,9.65,14.93,1.11,30.4-15.11,20.32-5.77,18.9-22.06,11.33-23.44,13.02,4.97,15.61-13.12,22.07-24.49,14.07-3.21,17.62-21.84,17.78-32.3,5.21-16.66,21.13-25.42,2.01-27.09,2.08-1.9.09-6.9,23.7-30.22,4.17-4.87,16.02-24.13,15.26-32.3,2.08-6.83,15.3-26.52,17.31-33.34,1.04-1.98-.89-14.23,24.58-36.47,0-7.88,14.35-26.11,10.88-30.22-4.17-10.4,13.63-29.9,12.54-33.34-5.21-1.41-1.07-17.73,15.38-28.13-8.34-8.79,10.93-24.05,5.62-29.17-6.25-13.13,15.46-30.77,9.47-33.34-10.42-12.85,9.58-30.68-4.01-22.4-18.23-13.26-.35-23.35-9.37-20.32-23.44-17.47,4.44-26.03-10.77-19.28-26.57-19.47,4.06-31.43-11.79-16.67-25.01-13.1.52-23.8-7.63-16.67-20.84-14.54-3.55-21.86-12.95-11.46-26.05-15.6-3.89-17.4-18.84-3.13-27.09-18.25-.22-23.64-18.36-7.29-27.09-11.66-2.65-16.49-13.81-8.34-22.92-12.73-5.64-14.99-20.83-1.04-25.01-12.71-7.26-10.55-20.88,3.13-25.01-13.39-5.32-12.8-20.31,2.08-21.88-12.93-20.97,8.09-22.44,9.38-23.44Z"/>
      <g>
        <path class="cls-35" d="M764.85,302.65c-.86.92-5.43,20.15-15.63,2.08-7.31-12.96,2.54-9.53-1.04-21.36-1.48-4.88-8.11-9.74-11.46-13.55-.92-3.62,6.56-18.08-12.5-26.05,8.09-20.71-15.08-26.39-15.63-28.13,4.52-13.95-6.26-23.2-19.8-22.92,6.3-15.42-3.37-24.53-18.76-25.01,3.86-15.58-12.87-24.81-26.57-22.4-2.13-.93-.36-23.15-22.92-21.88-2.05-18.15-16.17-30.81-34.38-23.96-9.15-32.31-37.54-21.38-39.59-22.92-1.06-.8.19-18.75-17.71-10.42-5.62-14.42-17.9-17.16-27.09-4.17-2.86-16.51-16.84-21.21-26.05-6.25-11.72-22.16-26.4-3.99-28.13-4.17-1.81-.19-14.99-19.18-30.22,2.08-15.67-19.98-26.46-2.39-28.13-2.08-1.56.28-11.98-18-26.05,1.04-5.21-10.17-20.77-10.05-26.05,0-1.96.42-10.33-13.22-21.88,4.17-12.53-7.33-14.7,4.85-15.63,5.21-1.58.61-18.28-12.93-23.96,12.5-12.02-13.74-31.08-2.45-28.13,14.59-7.31-6.17-20.32,1.69-21.88,11.46-18.07-6.89-28.67,5.84-31.26,22.92-13.96-2.11-22.22,8.17-22.92,21.88-13.46-3.88-30.61,7.48-27.61,22.4-15.28-.08-23.28,8.31-18.76,23.96-14.46.93-24.53,8.62-19.8,23.96-12.72,5.01-23.71,16.99-14.59,30.22-12.39,5.91-16.69,19.26-4.17,27.09-13.22.98-24.76,13.21-13.55,23.96-3.8,2.16-3.42,6.61-5.21,8.86-6.89,8.64-9.5,1.76-16.67-3.13-3.88-2.65-11.99-7.51-13.55-11.98-6.41-18.47,10.67-33.05,28.13-30.22-28.63-15.67-21.94-48.27,10.42-48.97-13.59-16.84,1.63-36.75,21.88-35.43-9.54-21.51,13.19-42.03,32.82-29.7,2.69-.09-2.32-8-.52-16.15,3.02-13.7,25.26-18.73,34.91-8.86-19.51-19.57,6.27-48.89,28.13-33.34-7.38-26.15,20.26-39.97,37.51-19.8-2.16-20.53,20.8-32.19,36.47-17.71,5.22-25.24,33.31-33.23,51.06-14.59-.73-29.48,36.41-37.36,46.89-9.38,7.69-24.23,41.69-22.14,44.8,3.13,10.49-20.89,31.71-20.33,42.72,0,9.06-26.79,45.61-18.8,47.93,8.34,15.85-20.52,44.82-15.43,51.06,9.38,16.45-15.42,38.77-5.25,37.51,16.67,17.51-17.36,40.81-1.74,35.43,21.88,16.03-4.4,28.35,7.93,28.13,23.96,23.49-12.42,45.31,15.98,27.09,37.51,20.94-15.35,47.69,6.18,35.95,29.7,25.69-.83,35.48,22.77,18.76,41.68,32.26-12.84,47.4,26.27,17.71,42.72,19.82-2.28,32.24,16.06,23.96,31.26-1.42,2.61-7.74,5.93-11.46,9.9Z"/>
        <path class="cls-29" d="M749.23,304.74c.99,5.73-4.34,10.38-4.17,10.94.35,1.16,15.68,3.13,13.55,17.19-2.68.8-2.73-8.99-5.73-9.38-1.81-.23-7.53,12.11-16.67,9.38-6.01-1.8-1.05-12.1-15.11-19.28,19.49-28.15,2.49-9.81-6.25-28.13,7.7-31.91-10.01-3.49-15.63-27.61,11.02-13.79.36-3.02-7.29-19.8-1.36-2.97-.62-6.34-1.56-9.38-1.35,1.44-7.49,1.43-8.86,1.04-8.48-2.44-21.45-14.06-15.11-23.96-10.97-.32-22.73-7.01-11.98-17.19-20.29-3.7-11.78-16.5-13.55-19.8-9.22,1.32-15.24-3.15-17.71-11.98-.37-1.32-.37-5.68,1.04-6.77-1.97-1.66-3.35.56-4.17.52-10.44-.44-14.06-3.27-17.19-13.55-11.14,5.57-21.91.86-22.4-11.98-1.93-2.09-15.11,4.5-19.28-14.07-21.13,14.38-26.6-9.39-28.13-10.42-.82-.55-9.4,3.63-14.59-10.42-14.1,7.98-18.55-8.43-19.8-8.34-1.65.13-14.87,18.35-25.01-4.17-8.9,14.21-24.64,12.46-28.13-4.17-9,10.84-20.58,9.73-29.17-1.04-14.88,14.33-23.54-2.3-25.01-2.08-1.49.22-7.66,17.5-25.01,4.17-4.44,13.62-17.55,15.73-25.01,3.13-10.43,23.66-22.47,3.58-23.96,4.17-2.03.79,1.26,13.64-11.46,11.46-11.98-2.05-1.08-14.27-17.19,7.29-8.58-2.27-6.92,2.79-7.29,3.13-8.16,7.38-7.84,12.36-21.88,9.38-.96-.2-4.33-3.24-4.69-3.13-1.05.33-.25,2.85-.52,3.13-6.46,6.64-7.14,9.76-18.23,8.34.69,7.36-4.15,16.74-11.98,17.71-3.2.4-7.68-.49-9.9-3.13-.76.52-.71,4.99-1.56,6.25-3.81,5.59-7.63,6.05-13.55,8.34-.8.31-1.26-2.21-3.13.52-.3,2.08,1.93,4.47,1.04,6.77-4.3,11.16-14.08,10.11-15.63,10.42-6.27,1.25,1.36,2.27-2.08,11.46-2.44,6.51-14.3,8.81-14.59,9.9,9.32,11.05-4.13,15.75-13.55,17.71,6.78,20.07-15.67,19.55-27.09,26.57-2.06,1.27-2.8-3.45-4.17,10.42-11.5,6.93-11.85,9.56-1.04,21.36,0,.98-7.23,3.32-5.21,13.02-14.1-5.03-5.74-.32-11.46,8.86-9.11,14.63-29.4-2.05-8.34,22.92-13.66,7.82-6.45,26.62-25.53,15.11-11.2,7.83.55,16.16.52,17.19-.04,1.42-3.02,1.42-3.13,1.56-16.76-20,5.41-26.06,6.25-27.61.51-.95-5.28-6.43-4.17-10.94,1.79-2.25,1.41-6.7,5.21-8.86-11.21-10.76.33-22.98,13.55-23.96-12.52-7.83-8.23-21.18,4.17-27.09-9.12-13.22,1.87-25.21,14.59-30.22-4.73-15.35,5.33-23.03,19.8-23.96-4.53-15.65,3.48-24.05,18.76-23.96-3-14.93,14.15-26.28,27.61-22.4.7-13.71,8.97-24,22.92-21.88,2.58-17.08,13.19-29.81,31.26-22.92,1.56-9.77,14.57-17.63,21.88-11.46-2.94-17.04,16.11-28.32,28.13-14.59,5.68-25.43,22.38-11.9,23.96-12.5.93-.36,3.1-12.54,15.63-5.21,11.55-17.39,19.92-3.75,21.88-4.17,5.28-10.05,20.84-10.17,26.05,0,14.06-19.05,24.49-.76,26.05-1.04,1.68-.3,12.46-17.9,28.13,2.08,15.22-21.26,28.41-2.27,30.22-2.08,1.73.18,16.41-17.99,28.13,4.17,9.2-14.96,23.19-10.26,26.05,6.25,9.19-12.99,21.47-10.25,27.09,4.17,17.9-8.33,16.65,9.62,17.71,10.42,2.06,1.54,30.45-9.39,39.59,22.92,18.21-6.85,32.34,5.82,34.38,23.96,22.56-1.27,20.8,20.95,22.92,21.88,13.7-2.41,30.43,6.82,26.57,22.4,15.39.47,25.05,9.59,18.76,25.01,13.54-.27,24.32,8.97,19.8,22.92.55,1.74,23.72,7.42,15.63,28.13,19.07,7.97,11.58,22.43,12.5,26.05,3.35,3.81,9.98,8.66,11.46,13.55,3.58,11.83-6.27,8.4,1.04,21.36Z"/>
        <path class="cls-35" d="M691.92,238.05c-5.89,12.83-.29,6.05-13.02,4.17,2.83-4.23,2.69-7.59,2.6-12.5,1.37.39,7.51.4,8.86-1.04.95,3.04.21,6.4,1.56,9.38Z"/>
      </g>
      <g>
        <path class="cls-35" d="M709.63,351.1c.1-1.02,10.07-8.84,2.08-18.23-3.36-3.94-9.06-3.98-9.38-4.69-.54-1.19,14.15-12-4.17-20.84,8.31-7.54,6.31-16.44-4.17-20.84,12.19-18.28-7.09-21.44-7.29-22.92-.4-2.69,8.63-8.94,12.5-5.73,11.02-13.8.35-3.02-7.29-19.8-5.9,12.82-.29,6.04-13.02,4.17,2.83-4.23,2.69-7.59,2.6-12.5-8.48-2.44-21.46-14.07-15.11-23.96-10.98-.33-22.74-7-11.98-17.19-20.3-3.69-11.77-16.5-13.55-19.8-9.23,1.31-15.23-3.15-17.71-11.98-3.19,2.4-1.27-1.1-3.13-6.25-10.44-.44-14.07-3.27-17.19-13.55-11.13,5.56-21.9.85-22.4-11.98-1.92-2.08-15.11,4.5-19.28-14.07-21.13,14.38-26.59-9.4-28.13-10.42-.81-.54-9.4,3.63-14.59-10.42-14.11,7.98-18.55-8.44-19.8-8.34-1.65.13-14.86,18.36-25.01-4.17-8.9,14.21-24.63,12.46-28.13-4.17-9,10.84-20.59,9.73-29.17-1.04-14.88,14.34-23.55-2.29-25.01-2.08-1.48.23-7.65,17.5-25.01,4.17-4.44,13.63-17.55,15.73-25.01,3.13-10.44,23.65-22.46,3.58-23.96,4.17-2.02.79,1.25,13.63-11.46,11.46-11.98-2.04-1.08-14.27-17.19,7.29,6.31,1.67,1.42,6.79-7.29,3.13-8.17,7.38-7.84,12.36-21.88,9.38-.94,3.02-3.42,2.25-5.21,0-6.46,6.65-7.15,9.75-18.23,8.34.69,7.36-4.15,16.73-11.98,17.71-1.35,9.54-4.36,5.02-11.46,3.13-3.81,5.58-7.63,6.04-13.55,8.34-2.23,4.44,3.23,12.44-2.08,7.29-4.29,11.15-14.07,10.11-15.63,10.42-1.13,2.77,2.75,14.55-2.08,11.46-2.44,6.5-14.3,8.81-14.59,9.9,9.31,11.04-4.13,15.75-13.55,17.71,6.77,20.07-15.67,19.55-27.09,26.57l-1.04,10.94c-3.15,1.71-2.98-.6-3.13-.52-11.5,6.92-11.86,9.57-1.04,21.36,0,.98-7.23,3.31-5.21,13.02.75,3.56,6.36,7.34,6.25,7.81-.27,1.19-16.67,5.25-3.13,18.76-20.44,6.88,1.81,17.07-10.42,26.57,3.69,7.27,9.23,9.23,9.38,9.9.42,1.85-26.84,14.73-1.04,28.13.58,1.77-23.86,15.11,0,29.17-13.8,11.82-6.56,23.74,10.42,25.01-14.84,12.61-10.11,30.11,9.38,33.34-13.94,10.46-11.65,25.53,5.21,29.17-14.25,12.44-7.11,27.13,10.42,30.22-11.73,14.34,2.23,30.09,19.28,24.49.46,31.4,24.57,16.46,25.53,18.23-10.88,18.17.33,31.15,19.8,33.34-9.59,11.98,4.81,27.01,16.15,17.19,2.42,16.44,12.92,23.94,27.09,13.55-3.08,13.17,13.69,22.99,22.92,12.5,8.98,24.78,24.36,5.9,26.05,6.25,1.71.35,9.27,22.09,28.13,3.13,5.11,9.67,16.88,12.04,22.92,2.08,5.17,15.57,19.26,20.59,30.22,7.29,4.19,13.86,16.65,12.8,26.05,4.17,6.29,16.98,28.26,14.09,32.3-3.13,8.59,3.4,15.38,1,17.71-8.34,7.54,9.48,17.48,11.23,23.96,0,20.44,14.73,27.49-3.86,29.17-4.17,1.52-.27,10.77,15.3,27.09,0,11.38,10.02,21.36,4.46,20.84-10.42,1.42-1,25.05,7.9,19.28-18.23,22.96.17,15.8-21.4,17.19-22.4,12.27,1.98,24.42-8.23,18.23-20.32,15.44.73,24.36-8.31,16.67-22.92,15.8.13,26.15-8.56,17.71-23.96,13.36,2.75,24.86-13.36,14.59-23.96,18.53-2.29,25.03-16.23,10.42-29.17,15.5-2.63,18.05-16.23,7.29-27.09,14.05-3.46,17.4-14.5,6.25-23.96,15.5-1.94,18.98-13.63,8.34-25.01,11.94-6.52,12.07-20.59-1.04-25.01,18.69-5.65,9.17-17.84,9.38-19.8ZM603.35,456.34c-19.09-.31-24.92,14.65-8.34,25.01-18.63.31-26.57,10.25-12.5,25.01-15.65-3.83-26.26,6.4-18.23,21.36-17.88-7.42-30.22-2.15-20.84,17.71-16.65-7.46-27.92-2.04-20.84,16.67-13.63-13.15-24.59-2.81-20.84,14.59-12.57-14.05-25.3-7.42-21.88,11.46-11.17-10.46-24.99-7.19-28.13,8.34-7.77-14.84-21.78-15.73-29.17,0-12.07-30.36-24.49-4.19-26.05-5.21-1.94-16.61-13.46-16.13-22.92-4.17-3.31-15.57-17.63-19.9-28.13-7.29-2.69-15.75-18.23-25.84-30.22-11.46,3.86-15.67-7.86-24.21-19.8-12.5-1.85.17,3.61-21.55-14.59-17.71-1.17.25-6.77,4.54-8.34,6.25,3.19-17.86-5.15-24.99-21.88-17.71,5.75-15.67-5.69-23.21-20.32-19.28,10.92-11.69,6.54-24.88-10.42-23.96,13.98-8.67,12.23-22.32-5.21-21.88,17.55-9.25,9.44-25.59-9.38-21.88,26.11-17.59-5.11-19.07-5.21-20.84-.08-1.48,19.84-10.32-3.13-20.84-.83-1.65,25.15-15.03-1.04-27.09,16.53-1.08,22.78-13.44,8.34-23.96,13.73-4.44,20.42-18.71,5.21-26.05,19.94,1.1,24.21-15.46,7.29-25.01,17.07,2.83,24.51-7.88,13.55-21.88,12.92,3.63,24.55-8.27,20.84-20.84.71-2.25,23.51-5.02,18.23-27.61,17.19,4.54,34.3,0,28.13-20.84,13.92,14.25,26.55,9.61,27.09-10.42,7.09,14.3,21.57,12.8,25.01-3.13,10.57,13.88,20.71,9.23,22.92-7.29,11,23.74,19.38,1.54,20.84,1.04,1.75-.6,19.26,18.9,29.17-5.21,6.71,11.46,18.69,12.61,27.09,2.08,7.92,11,22.17,18.15,32.3,6.25,1.92.54,5,30.65,27.61,15.11-5.71,17.42,11.79,27.17,27.09,20.84-9.38,11.9-.46,27.7,14.59,18.76-13.44,29.55,16.78,17.03,17.71,18.76-6.73,16.63-.31,26.65,17.71,18.76-12.42,16.65-1.6,26.74,16.67,19.8-10.46,10.84-8.94,26.49,7.29,29.17-17.07,8.54-15.05,27.05,5.21,27.09-20.28,6.96-14.32,19.21,4.17,21.88.96,1.52-27.15,9.15-3.13,26.05-17.34,3.02-21.96,16.05-6.25,26.05-15.61.1-22.99,19.42-7.29,26.05Z"/>
        <g>
          <g>
            <path class="cls-35" d="M224.08,139.07c-1.36,9.54-4.36,5.02-11.46,3.13.86-1.26.8-5.73,1.56-6.25,2.22,2.64,6.7,3.52,9.9,3.13Z"/>
            <path class="cls-35" d="M288.68,100.52c6.31,1.67,1.42,6.8-7.29,3.13.37-.33-1.29-5.4,7.29-3.13Z"/>
            <path class="cls-37" d="M124.05,233.89l-1.04,10.94c-3.15,1.71-2.99-.6-3.13-.52,1.37-13.87,2.11-9.15,4.17-10.42Z"/>
            <path class="cls-35" d="M181.36,168.24c-1.13,2.76,2.76,14.55-2.08,11.46,3.44-9.19-4.19-10.22,2.08-11.46Z"/>
            <path class="cls-35" d="M199.07,150.53c-2.24,4.43,3.22,12.44-2.08,7.29.89-2.3-1.34-4.69-1.04-6.77,1.86-2.73,2.33-.21,3.13-.52Z"/>
            <path class="cls-35" d="M623.15,156.78c-3.19,2.39-1.27-1.09-3.13-6.25.82.03,2.2-2.18,4.17-.52-1.41,1.1-1.41,5.46-1.04,6.77Z"/>
            <path class="cls-37" d="M259.51,113.02c-.93,3.02-3.42,2.25-5.21,0,.27-.28-.53-2.8.52-3.13.35-.11,3.73,2.92,4.69,3.13Z"/>
            <path class="cls-37" d="M651.28,428.73c-17.61-12.92-11.66-30.66,6.25-39.07-13.8-7.98-14.34-29.44-1.04-38.55-17.64-1.67-22.52-18.14-11.46-31.26-15.75-3.43-21.64-20.73-11.46-33.34-.63-2.39-30.35.26-15.63-37.51-17.65,7.62-33.15-5.16-25.01-22.92-19.09,5.67-30.87-5.63-28.13-25.01-18.44,6.31-32.19-5.13-33.86-23.44-16.32,6.86-30.99-3.92-33.34-20.84-13.47,9.48-31.96,6.47-38.55-9.38-10.97,10.43-25.11,12.23-34.38-1.04-17.9,17.46-31.66-.82-33.34,0-4.82,13.45-22.71,11.52-30.22,2.08-7.97,15.48-24.76,18.85-38.55,8.34-5.45,17.61-20.83,27.41-37.51,16.67-2.35.72-2.85,31.86-35.43,22.92,4.39,35.4-25.12,25.75-26.57,27.61,9.63,15.38-4.13,30.54-20.84,25.01,10.62,16.9,2.56,34.61-17.71,35.43,11.14,11.64,4.61,31.62-11.46,34.38,9.63,14.03,6.1,28.5-11.46,32.3,12.67,12.86,11.45,32.33-5.21,40.64,6.05,4.22,14.51,11.46,10.42,19.28-2.02-7.63-9.27-11.73-16.67-11.98,17.3-17.86-7.48-27.35-7.29-29.17,12.3-8.17,16-17.74,5.21-29.17,23.67-11.23,4.65-25.44,5.21-27.09.6-1.75,22.68-9.44,7.29-30.22,10.86-6.86,15.59-16.96,8.34-28.13,18.52,1.39,29.73-10.65,20.84-28.13,14.96,6.1,27.43-4.48,22.92-19.8,12.63,3.75,23.49-5.66,16.67-17.71.09-2.29,21.4,5.76,21.36-21.36,14.34,4.5,22.08-4.11,23.96-17.71,12.38,5.93,24.36-2.05,27.09-14.59,12.39,8.54,27.86,4.73,32.3-10.42,10.16,10.2,26.87,11.58,33.34-3.13,1.65-.56,15.21,18.57,29.17-2.08,8.02,7.44,20.4,7.08,27.09-2.08,6.49,11.21,19.89,11.2,28.13,2.08,12.51,18.8,27.81,1.07,29.17,2.08,2.65,13.47,18.24,19.43,29.17,10.42,3.34,12.32,12.07,18.5,25.01,14.59,1.69,13.8,12.29,22.95,26.57,17.19-3.84,26.8,20.59,20.05,20.84,21.88-6.6,13.47,5.55,22.46,18.76,17.71-5.12,14.86,7.86,25.47,21.88,19.8-3.9,7.65-1.58,22.17,6.77,25.53,6.87,2.76,14.74-.86,15.11,1.56-5.58,10.65-.78,23.33,10.42,27.09-11.02,22.56,11.48,25.35,11.46,27.09-13.08,9.5-10.51,24.76,5.21,29.17-11.75,8.9-8.97,22.01,4.17,28.13-13.83,2.52-20.37,14.78-8.34,25.01-14.38,2.38-17.39,14.18-4.17,21.88-12.27.96-17.2,7.41-12.5,19.28Z"/>
          </g>
          <path class="cls-36" d="M651.28,428.73c-17.61-12.92-11.67-30.65,6.25-39.07-13.8-7.98-14.34-29.45-1.04-38.55-17.65-1.67-22.53-18.15-11.46-31.26-15.75-3.44-21.65-20.73-11.46-33.34-.63-2.4-30.34.25-15.63-37.51-17.65,7.63-33.15-5.17-25.01-22.92-19.09,5.67-30.88-5.63-28.13-25.01-18.44,6.31-32.2-5.13-33.86-23.44-16.32,6.86-30.99-3.92-33.34-20.84-13.46,9.48-31.97,6.46-38.55-9.38-10.96,10.42-25.11,12.23-34.38-1.04-17.9,17.46-31.65-.83-33.34,0-4.83,13.46-22.71,11.52-30.22,2.08-7.98,15.48-24.76,18.86-38.55,8.34-5.44,17.61-20.84,27.4-37.51,16.67-2.35.73-2.85,31.86-35.43,22.92,4.4,35.41-25.11,25.76-26.57,27.61,9.63,15.38-4.13,30.53-20.84,25.01,10.61,16.9,2.56,34.61-17.71,35.43,11.15,11.63,4.61,31.61-11.46,34.38,9.63,14.02,6.11,28.51-11.46,32.3,12.67,12.86,11.46,32.34-5.21,40.64,6.04,4.21,14.5,11.46,10.42,19.28,2.38,8.94-1.15,12.59-7.29,18.23,14.65,5.02,21.84,19.17,10.42,31.26,18.73.35,28.72,17.11,16.67,32.3,16.13-.44,28.78,15.17,19.8,30.22.63,1.9,28.59,1.02,21.88,26.05,18.13-4.58,31.63,9.21,23.44,26.57,21.23-2.15,17.03,13.71,19.8,14.59,13.05-7.65,27.22-1.88,31.26,12.5,11.52-7.09,26.28-2.77,30.22,10.42,13.46-11.44,30.2-6.86,34.38,10.42,9.17-13.46,27.36-10.52,31.26,5.21,2.19.98,10.88-17.42,25.01,0,17.75-28.3,33.34-5.56,35.43-6.25,2.02-.69,14.17-27.59,34.38-7.29,4.9-17.67,23.51-24.38,36.47-10.42-3.65-17.34,10.23-33.36,26.05-20.84.31-16.38,12.25-30.45,29.17-22.92-5.54-16.94,5.9-30.8,23.44-29.7-11.48-17.53,1.73-34.43,21.88-33.34-6.42-8.84-2.79-16.92,7.29-19.8-15.09-9.84-9.77-23.3,7.29-26.05-4.04-2.71-5.25-9.13-4.17-13.55,2.54-10.4,17.32-4.83,10.42-9.9ZM616.9,404.24c-17.34,3.02-21.96,16.05-6.25,26.05-15.61.1-22.99,19.42-7.29,26.05-19.09-.31-24.92,14.65-8.34,25.01-18.63.31-26.57,10.25-12.5,25.01-15.65-3.83-26.26,6.4-18.23,21.36-17.88-7.42-30.22-2.15-20.84,17.71-16.65-7.46-27.92-2.04-20.84,16.67-13.63-13.15-24.59-2.81-20.84,14.59-12.57-14.05-25.3-7.42-21.88,11.46-11.17-10.46-24.99-7.19-28.13,8.34-7.77-14.84-21.78-15.73-29.17,0-12.07-30.36-24.49-4.19-26.05-5.21-1.94-16.61-13.46-16.13-22.92-4.17-3.31-15.57-17.63-19.9-28.13-7.29-2.69-15.75-18.23-25.84-30.22-11.46,3.86-15.67-7.86-24.21-19.8-12.5-1.85.17,3.61-21.55-14.59-17.71-1.17.25-6.77,4.54-8.34,6.25,3.19-17.86-5.15-24.99-21.88-17.71,5.75-15.67-5.69-23.21-20.32-19.28,10.92-11.69,6.54-24.88-10.42-23.96,13.98-8.67,12.23-22.32-5.21-21.88,17.55-9.25,9.44-25.59-9.38-21.88,26.11-17.59-5.11-19.07-5.21-20.84-.08-1.48,19.84-10.32-3.13-20.84-.83-1.65,25.15-15.03-1.04-27.09,16.53-1.08,22.78-13.44,8.34-23.96,13.73-4.44,20.42-18.71,5.21-26.05,19.94,1.1,24.21-15.46,7.29-25.01,17.07,2.83,24.51-7.88,13.55-21.88,12.92,3.63,24.55-8.27,20.84-20.84.71-2.25,23.51-5.02,18.23-27.61,17.19,4.54,34.3,0,28.13-20.84,13.92,14.25,26.55,9.61,27.09-10.42,7.09,14.3,21.57,12.8,25.01-3.13,10.57,13.88,20.71,9.23,22.92-7.29,11,23.74,19.38,1.54,20.84,1.04,1.75-.6,19.26,18.9,29.17-5.21,6.71,11.46,18.69,12.61,27.09,2.08,7.92,11,22.17,18.15,32.3,6.25,1.92.54,5,30.65,27.61,15.11-5.71,17.42,11.79,27.17,27.09,20.84-9.38,11.9-.46,27.7,14.59,18.76-13.44,29.55,16.78,17.03,17.71,18.76-6.73,16.63-.31,26.65,17.71,18.76-12.42,16.65-1.6,26.74,16.67,19.8-10.46,10.84-8.94,26.49,7.29,29.17-17.07,8.54-15.05,27.05,5.21,27.09-20.28,6.96-14.32,19.21,4.17,21.88.96,1.52-27.15,9.15-3.13,26.05Z"/>
        </g>
      </g>
    </g>
    <g>
      <g>
        <rect class="cls-21" x="477.5" y="347.51" width="111.77" height="86.08"/>
        <text class="cls-32" transform="translate(509.11 422.1) scale(.97 1)"><tspan x="0" y="0">PIP</tspan></text>
        <g>
          <g>
            <path class="cls-31" d="M516.96,383.12h-10.42l3.18-15.34h10.24l-.87,4.24h-5.59l-.27,1.31h4.77l-.84,3.99h-4.76l-.33,1.56h5.76l-.87,4.24ZM507.45,382.37h8.92l.56-2.74h-5.76l.64-3.05h4.76l.52-2.5h-4.76l.58-2.8h5.58l.57-2.75h-8.74l-2.87,13.84Z"/>
            <path class="cls-31" d="M523.75,383.12h-5.69l3.18-15.34h5.54c.98,0,1.84.15,2.58.47.74.32,1.37.75,1.86,1.31.49.55.86,1.2,1.1,1.95.23.72.35,1.52.35,2.34,0,1.33-.23,2.59-.68,3.71-.45,1.13-1.08,2.12-1.88,2.93-.8.83-1.75,1.47-2.83,1.93-1.08.47-2.27.7-3.52.7ZM518.96,382.37h4.79c1.16,0,2.25-.21,3.24-.64.99-.42,1.87-1.02,2.59-1.77.73-.75,1.31-1.65,1.72-2.69.42-1.04.62-2.19.62-3.43,0-.75-.11-1.46-.31-2.11-.2-.64-.52-1.2-.94-1.67-.42-.47-.96-.84-1.6-1.12-.65-.27-1.42-.41-2.31-.41h-4.95l-2.87,13.84ZM524.47,379.63h-1.79l1.74-8.35h1.64c.83,0,1.48.3,1.94.9.43.57.64,1.33.64,2.24,0,.68-.1,1.34-.3,1.96-.21.62-.49,1.18-.84,1.65-.37.48-.8.88-1.31,1.16-.52.29-1.1.44-1.72.44ZM523.58,378.88h.89c.5,0,.96-.12,1.37-.35.42-.23.78-.55,1.09-.96.3-.4.54-.89.72-1.42.17-.54.26-1.12.26-1.73,0-.75-.17-1.35-.5-1.78-.3-.41-.75-.61-1.36-.61h-1.05l-1.43,6.86Z"/>
            <path class="cls-31" d="M538.54,383.19c-.77,0-1.51-.13-2.14-.4-.68-.29-1.29-.71-1.79-1.25-.5-.54-.89-1.2-1.17-1.97-.28-.77-.43-1.65-.43-2.62,0-1.29.26-2.52.77-3.65.5-1.12,1.18-2.11,2.03-2.94.84-.83,1.81-1.49,2.89-1.96,1.09-.48,2.22-.72,3.39-.72.63,0,1.23.08,1.79.23.57.16,1.09.38,1.55.68.46.3.86.67,1.17,1.09.32.43.56.91.72,1.45l.08.27-4.02,2.73-.13-.51c-.13-.49-.37-.88-.75-1.18-.38-.3-.8-.44-1.3-.44-.45,0-.87.11-1.27.33-.42.23-.79.54-1.11.94-.33.39-.58.87-.78,1.42-.19.55-.29,1.14-.29,1.76,0,.77.17,1.39.52,1.85.33.43.8.64,1.42.64s1.31-.51,1.78-1.03h-1.68s.6-2.93.6-2.93h7.27l-1.7,8.16h-3.33s.24-1.29.4-1.88c-.92.8-2.15,1.53-2.86,1.73-.5.15-1.07.22-1.65.22ZM544.4,378.28l-.85,4.09h1.83l1.39-6.66h-5.78l-.3,1.43h2.19l-.34.59c-.43.67-1.59,1.94-2.85,1.94-.85,0-1.52-.31-1.99-.92-.45-.59-.68-1.36-.68-2.31,0-.71.11-1.39.33-2.02.22-.63.52-1.18.9-1.65.38-.46.82-.83,1.31-1.11.51-.28,1.05-.43,1.62-.43.65,0,1.23.2,1.74.61.37.3.65.67.84,1.11l2.74-1.85c-.13-.35-.3-.66-.51-.95-.27-.35-.6-.66-.99-.92-.39-.26-.84-.45-1.33-.59-.5-.13-1.05-.2-1.61-.2-1.07,0-2.11.23-3.1.66-.99.44-1.89,1.05-2.68,1.81-.77.76-1.4,1.68-1.86,2.72-.47,1.03-.7,2.15-.7,3.33,0,.88.12,1.67.37,2.36.25.67.59,1.25,1.02,1.72.43.47.95.83,1.54,1.07.53.22,1.19.34,1.86.34.51,0,1.01-.07,1.44-.2.91-.26,2.46-1.13,3.34-2.4.9-1.28,1.08-1.56,1.08-1.56Z"/>
            <path class="cls-31" d="M557.52,383.12h-10.67l3.43-15.34h10.24l-.87,4.24h-5.59l-.27,1.31h4.77l-.84,3.99h-4.76l-.33,1.56h5.77l-.88,4.24ZM547.75,382.37h9.17l.57-2.74h-5.77l.64-3.05h4.76l.52-2.5h-4.76l.58-2.8h5.59l.56-2.75h-8.73l-3.12,13.84Z"/>
          </g>
          <text class="cls-30" transform="translate(512.61 365.79) scale(.97 1)"><tspan x="0" y="0">HARPUR</tspan></text>
        </g>
      </g>
      <text/>
      <path class="cls-12" d="M556.26,577.95c30.71-14.12,95.27-83.28,99.41-87.53,13.97-14.35,10.78-18.74,0-60.55-13.97-54.22-18.62-100.72-38.52-131.02l14.9-15.3c19.71-20.24,19.71-53.07,0-73.31-19.71-20.25-51.68-20.24-71.39,0l-16.65,17.09c-38.64-24.08-85.86-38.19-139.82-38.19h0c-53.96,0-101.18,14.11-139.82,38.19l-16.65-17.09c-19.71-20.24-51.68-20.25-71.39,0-19.71,20.24-19.71,53.07,0,73.31l14.9,15.3c-19.9,30.3-24.55,76.79-38.52,131.02-10.77,41.81-13.97,46.2,0,60.55,4.14,4.25,68.7,73.42,99.41,87.53"/>
      <path class="cls-26" d="M404.2,329.03c97.8,0,139.71-28.69,139.71-28.69,0,0,55.88,157.81,55.88,172.15s-69.85,114.77-195.59,114.77-195.59-100.42-195.59-114.77,55.88-172.15,55.88-172.15c0,0,41.91,28.69,139.71,28.69Z"/>
      <path class="cls-15" d="M535.42,218.66c-6.02-5.51,1.1-36.21-6.14-39.76-7.26-3.55-26.83,22.83-34.58,19.94-7.55-2.81-6.07-35.94-14.06-38.07-7.76-2.06-22.2,27.61-30.36,26.22-7.9-1.34-12.18-34.23-20.43-34.9-7.97-.65-17.35,28.68-25.64,28.68s-17.67-29.33-25.64-28.68c-8.26.67-12.54,33.56-20.43,34.9-8.16,1.39-22.61-28.28-30.36-26.22-8,2.13-6.52,35.27-14.07,38.07-7.75,2.88-27.32-23.5-34.58-19.94-7.24,3.55-.11,34.26-6.14,39.76-2.91,1.65-5.78,3.33-8.6,5.09,0,0,42.02,70.21,139.82,70.21s139.82-70.21,139.82-70.21c-2.82-1.76-5.69-3.44-8.6-5.09Z"/>
      <g id="big_eyes">
        <ellipse class="cls-7" cx="502" cy="415.1" rx="27.94" ry="43.04"/>
        <ellipse class="cls-7" cx="306.4" cy="415.1" rx="27.94" ry="43.04"/>
        <path class="cls-19" d="M334.35,415.1c0,28.69-13.97,43.04-27.94,43.04-27.94,0-27.94-43.04-27.94-43.04"/>
        <path class="cls-19" d="M529.94,415.1c0,28.69-13.97,43.04-27.94,43.04-27.94,0-27.94-43.04-27.94-43.04"/>
        <ellipse class="cls-31" cx="502" cy="415.1" rx="13.97" ry="14.35"/>
        <ellipse class="cls-31" cx="306.4" cy="415.1" rx="13.97" ry="14.35"/>
        <polyline class="cls-5" points="306.4 415.1 334.35 415.1 306.4 372.06 306.4 415.1 292.43 415.1 278.46 415.1"/>
        <polyline class="cls-5" points="474.05 415.1 502 415.1 502 372.06 529.94 415.1 502 415.1"/>
      </g>
      <polygon class="cls-25" points="404.2 456.55 432.14 462.92 404.2 443.8 404.2 443.8 404.2 443.8 404.2 443.8 404.2 443.8 376.26 462.92 404.2 456.55"/>
      <g id="mouth">
        <path class="cls-20" d="M404.2,501.18s7.98,14.35,31.93,14.35c9.98,0,23.95-14.35,23.95-14.35"/>
        <path class="cls-20" d="M404.2,501.18s-7.98,14.35-31.93,14.35c-9.98,0-23.95-14.35-23.95-14.35"/>
      </g>
      <g>
        <g>
          <path class="cls-28" d="M613.41,224.76c-10.91-11.21-28.6-11.2-39.52,0l39.52,40.58c10.91-11.2,10.91-29.37,0-40.58Z"/>
          <path class="cls-28" d="M194.99,224.76c-10.91,11.21-10.91,29.37,0,40.58l39.51-40.58c-10.91-11.2-28.6-11.2-39.51,0Z"/>
        </g>
        <g>
          <path class="cls-9" d="M613.41,224.76c-10.91-11.21-28.6-11.2-39.52,0l39.52,40.58c10.91-11.2,10.91-29.37,0-40.58Z"/>
          <path class="cls-9" d="M194.99,224.76c-10.91,11.21-10.91,29.37,0,40.58l39.51-40.58c-10.91-11.2-28.6-11.2-39.51,0Z"/>
        </g>
        <g>
          <path class="cls-11" d="M613.41,224.76c-10.91-11.21-28.6-11.2-39.52,0l39.52,40.58c10.91-11.2,10.91-29.37,0-40.58Z"/>
          <path class="cls-11" d="M194.99,224.76c-10.91,11.21-10.91,29.37,0,40.58l39.51-40.58c-10.91-11.2-28.6-11.2-39.51,0Z"/>
        </g>
      </g>
      <path class="cls-10" d="M667.16,582.09c-23.2-40.32-41.54-187.06-76.19-167-34.65,20.06,43.86,191.25,43.86,191.25"/>
      <path class="cls-10" d="M117.52,598.25c27.4-37.44,65.36-198.85,97.64-174.97,32.28,23.87-57.22,191.14-57.22,191.14"/>
      <path class="cls-13" d="M602.91,486.58s-17.82-70.53-52.86-106.57c-35.05-36.03-83.03,0-83.03,0l-66.46-12.92-64.21,9.79c-50.34-32.57-96.44,9.46-87.74,2.15l-43.7,85.78,153.56,18.34,31.06-29.47h21.28l31.06,29.47,161.05,3.43"/>
      <ellipse class="cls-1" cx="276.91" cy="506.9" rx="82.68" ry="78.54"/>
      <ellipse class="cls-22" cx="276.91" cy="506.9" rx="56.02" ry="53.21"/>
      <ellipse class="cls-6" cx="273" cy="500.42" rx="45.66" ry="43.37"/>
      <ellipse class="cls-17" cx="523.03" cy="506.9" rx="82.68" ry="78.54"/>
      <ellipse class="cls-22" cx="523.03" cy="506.9" rx="56.02" ry="53.21"/>
      <ellipse class="cls-6" cx="519.12" cy="500.42" rx="45.66" ry="43.37"/>
      <g>
        <path class="cls-18" d="M558,501.75c-1.13,9.38-4.85,20.66-12.16,27.44-7.02,7.11-17.61,9.72-25.88,9.35-8.27.38-18.87-2.24-25.88-9.35-7.3-6.78-11.03-18.06-12.16-27.44-1.88-9.37-.76-21.02,6.63-27.77,6.92-7.15,20.12-9.39,31.41-9.03,11.28-.36,24.48,1.88,31.41,9.03,7.4,6.75,8.52,18.4,6.64,27.77Z"/>
        <path class="cls-3" d="M558,501.75c-1.32,11.63-5.8,22.76-13.22,28.9-7.2,6.47-17.34,7.97-24.82,7.88-16.33,1.6-27.24-7.92-32.34-17.64-5.4-9.73-4.99-19.66-5.7-19.14"/>
        <path class="cls-31" d="M544.03,501.07c-.5,8.4-10.68,15.89-24.07,15.94-13.39-.05-23.57-7.54-24.07-15.94-.8-8.41,9.36-16.16,24.07-16.19,14.71.03,24.86,7.79,24.07,16.19Z"/>
        <path class="cls-23" d="M481.92,501.75c3.71-.6,20.87-.91,38.04-.91,0-16.54,0-32.79,0-35.9,14.72,2.41,36.92,23.85,38.04,36.8-3.71-.6-20.87-.91-38.04-.91"/>
      </g>
      <g>
        <path class="cls-4" d="M310.38,501.45c-1.12,9.29-4.81,20.46-12.04,27.18-6.95,7.04-17.45,9.63-25.64,9.26-8.19.37-18.69-2.22-25.64-9.26-7.24-6.72-10.93-17.89-12.04-27.18-1.86-9.28-.76-20.82,6.57-27.51,6.86-7.08,19.93-9.3,31.11-8.94,11.18-.36,24.25,1.87,31.11,8.94,7.33,6.69,8.44,18.23,6.57,27.51Z"/>
        <path class="cls-16" d="M310.38,501.45c-1.31,11.52-5.75,22.54-13.1,28.63-7.13,6.41-17.17,7.9-24.58,7.8-16.17,1.59-26.99-7.85-32.04-17.48-5.35-9.64-4.95-19.48-5.65-18.96"/>
        <path class="cls-31" d="M296.54,500.77c-.49,8.32-10.58,15.74-23.84,15.79-13.26-.05-23.35-7.47-23.84-15.79-.79-8.33,9.27-16.01,23.84-16.04,14.57.03,24.63,7.71,23.84,16.04Z"/>
        <path class="cls-24" d="M235.01,501.45c3.67-.6,20.68-.9,37.68-.9,0-16.39,0-32.48,0-35.56,14.58,2.39,36.57,23.63,37.68,36.45-3.67-.6-20.68-.9-37.68-.9"/>
      </g>
      <ellipse class="cls-2" cx="400.55" cy="431.27" rx="23.6" ry="22.42"/>
      <path class="cls-8" d="M300.58,399.67c26.98,1.57,51.99,20.11,60.13,44.6"/>
      <path class="cls-8" d="M494.84,400.14c-9.25,1.5-18.15,4.98-25.83,10.1-4.35,2.9-8.3,6.31-12.07,9.86-7.54,7.09-14.66,15.17-17.33,24.93"/>
      <path class="cls-8" d="M335.34,410.49c18.34-5.37,38.07-4.91,56.59-9.7,2.35-.61,4.71-1.31,7.14-1.45,2.47-.14,4.93.3,7.36.74,19.72,3.55,39.44,7.1,59.16,10.64"/>
      <path class="cls-14" d="M282.06,351.69c12.47-2.98,26.05-1.59,37.57,3.84,2.52,1.19,4.98,2.59,6.91,4.52,2.7,2.7,4.2,6.26,5.65,9.72,1.4,3.34,1.75,3.13,3.14,6.47-16.19-1.06-20.59-2.13-31.02-2.59-10.44-.46-18.57-.16-28.86,1.57-7.04,1.18-13.26,2.25-20.14,3.19-6.27.86-5.91-3.4-3.42-7.43,6.06-9.79,18.9-16.6,30.16-19.29Z"/>
      <path class="cls-14" d="M497.68,349.62c12.47-2.98,26.05-1.59,37.57,3.84,2.52,1.19,4.98,2.59,6.91,4.52,2.7,2.7,4.2,6.26,5.65,9.72,1.4,3.34-.16,7.97,1.24,11.31-16.19-1.06-18.68-6.97-29.12-7.44s-18.57-.16-28.86,1.57c-7.04,1.18-13.26,2.25-20.14,3.19-6.27.86-5.91-3.4-3.42-7.43,6.06-9.79,18.9-16.6,30.16-19.29Z"/>
    </g>
    <path class="cls-35" d="M658.67,116.66c1.13-2.05,2.41-4.07,4.25-5.52,4.74-3.72,12.1-2.33,16.5,1.79,4.4,4.12,6.34,10.24,7.19,16.2,1.56,10.98-3.88,20.67-15.51,22.54-8.74,1.41-19.22-6.38-20.09-14.15-.72-6.45,4.6-15.3,7.67-20.86Z"/>
    <path class="cls-29" d="M650.6,167.41c-1.37,1.8-3.93,2.05-6.19,2.15-3.41.15-7.03.24-9.97-1.51-1.98-1.18-3.41-3.06-4.8-4.9-3.15-4.19-6.46-8.85-6.24-14.09.17-3.89,2.36-7.52,5.36-10.01,3-2.49,6.73-3.96,10.52-4.86,4.33-1.04,9.51-1.15,12.54,2.11,1.47,1.58,2.18,3.71,3.14,5.64,1.05,2.1,2.44,4.03,4.1,5.69,1.73,1.72,3.74,3.15,5.29,5.04s2.6,4.41,1.93,6.76c-.84,2.92-3.94,4.48-6.73,5.7-4.42,1.93-8.84,3.87-13.26,5.8"/>
    <path class="cls-29" d="M175.67,173.76c-.39,1.4-.64,2.86-1.27,4.17-1.98,4.07-7.03,5.48-11.52,6.02-3.07.37-6.28.52-9.14-.66-3.89-1.61-6.41-5.4-8.24-9.19-2.3-4.76-3.75-10.87-.44-15,1.56-1.94,3.9-3.05,6.17-4.09,2.76-1.26,5.58-2.51,8.58-2.94,4.68-.68,9.62.75,13.21,3.82,2.48,2.12,4.51,5.19,5.24,8.4.87,3.79-1.58,5.9-2.58,9.47Z"/>
    <path class="cls-35" d="M126.43,138.05c7.94-5.7,17.84-8.61,27.6-8.12,3.43.17,7.03.84,9.66,3.04,4.64,3.88,4.68,10.87,4.34,16.91-.04.78-.1,1.59-.49,2.26-.37.63-.99,1.07-1.62,1.43-3.55,2.01-7.82,2.14-11.82,2.98-4,.84-8.27,2.89-9.5,6.78-.4,1.26-.51,2.75-1.53,3.58-.69.56-1.63.67-2.52.76-3.53.36-7.05.72-10.58,1.08-4.55.46-9.29.91-13.58-.69-4.29-1.59-7.95-5.88-7.23-10.4.58-3.7,3.74-6.36,6.68-8.67,2.1-1.65,4.92-3.25,6.51-5.41,1.48-2.01,2.2-3.65,4.08-5.54Z"/>
    <path class="cls-35" d="M677.41,590.77c-.04.86-.13,1.77-.64,2.47-.38.52-.96.86-1.53,1.15-3.19,1.65-6.77,2.52-10.36,2.51-4.69,0-10.81-.74-12.7,3.55-1.12,2.54.09,5.66-1.04,8.2-.54,1.21-1.55,2.13-2.59,2.95-9.34,7.36-23.29,8.22-33.47,2.07-1.44-.87-2.86-1.92-3.59-3.43-.77-1.59-.69-3.44-.55-5.21,1.02-13.24,3.94-26.81,11.82-37.5,8.25-11.2,26.2-20.9,39.73-12.88,10.72,6.35,15.49,24.77,14.94,36.11Z"/>
    <path class="cls-37" d="M174.1,606.34c-1.42,1.75,1.61,6.51,0,8.08-1.27,1.24-6.66,7.02-8.08,8.08-1.59,1.19-6.16,7.58-8.08,8.08-13.71,3.59-31.1-9.29-42.59-17.59-2.61-1.89-5.11-4.13-6.45-7.06-.99-2.17-1.3-4.6-1.25-6.99.15-7.19,3.33-13.93,6.44-20.42,2.5-5.2,5.2-10.64,9.98-13.87,4.77-3.23,14.53-3.55,17.7,1.26,1.77,2.69,7.68,4.89,8.08,8.08s-6.59,8.29-3.7,9.72c2.04,1.01,4.45.71,6.73.8,9.58.38,29.12,12.06,21.23,21.81Z"/>
    <path class="cls-35" d="M174.8,557.37c-4.23-6.92-9.36-13.61-16.43-17.57s-16.46-4.66-23.04.07c-6.15,4.43-8.6,12.42-9.41,19.96-.11,1.01-.19,2.08.26,3,.81,1.68,3.01,2.13,4.87,1.94,1.85-.2,3.7-.84,5.54-.53,2.76.46,4.82,3.04,5.38,5.79.56,2.75-.13,5.6-1.14,8.21-.43,1.1-.92,2.24-.77,3.41.3,2.36,2.92,3.59,5.23,4.17,6.45,1.6,14.38-1.28,18.74,4.3,3.26,4.18,12.09,12.23,18.18,8.14,10.91-7.33-1.96-32-7.39-40.88Z"/>
    <path class="cls-39" d="M171.16,581.65c30.29,12.03-10.71,42.29-35.48,26.92-14.77-9.17-5.77-13.15-3.67-15.91,4.87-6.38,10.18-10.63,18.35-12.24,6.49-1.28,14.77-1.17,20.8,1.22Z"/>
    <path class="cls-39" d="M413.33,611.28c14.93,11.7-12.88,22.49-24.19,9.75-6.74-7.6-1.07-8.45.55-9.69,3.76-2.88,7.41-4.46,12.23-4.08,3.83.3,8.43,1.68,11.4,4.01Z"/>
    <path class="cls-39" d="M453.74,659.78c14.93,11.7-12.88,22.49-24.19,9.75-6.74-7.6-1.07-8.45.55-9.69,3.76-2.88,7.41-4.46,12.23-4.08,3.83.3,8.43,1.68,11.4,4.01Z"/>
    <path class="cls-39" d="M238.92,653.83c25.42,3.52,14.28,47.94-9.28,39.2-14.05-5.21-10.27-12.15-10.3-15.7-.07-8.22,1.21-14.32,5.64-18.49,3.52-3.32,8.88-5.72,13.94-5.01Z"/>
    <path class="cls-39" d="M699.31,511.63c18.2,2.84,10.7,35.21-6.22,28.58-10.09-3.96-7.47-9-7.52-11.59-.14-6.01.72-10.46,3.84-13.47,2.48-2.39,6.28-4.09,9.91-3.52Z"/>
    <path class="cls-39" d="M250.45,586.62c20.82,4.41,13.98,43.55-5.59,34.57-11.67-5.35-8.95-11.37-9.15-14.54-.46-7.35.27-12.74,3.67-16.25,2.7-2.79,6.93-4.67,11.07-3.79Z"/>
    <path class="cls-39" d="M311.22,596.54c15.53-2.57,39.51,22.49,21.45,22.02-10.77-.28-13.46-4.55-15.85-6.39-5.54-4.27-8.96-7.67-9.46-10.61-.4-2.34.77-4.52,3.87-5.03Z"/>
    <path class="cls-39" d="M45.57,366.77c13.38-.75,36.24,19.92,20.42,18.2-9.43-1.03-12.11-4.44-14.34-6.01-5.17-3.63-8.42-6.45-9.07-8.7-.52-1.79.33-3.34,3-3.49Z"/>
    <path class="cls-39" d="M505.21,596.54c15.53-2.57,39.51,22.49,21.45,22.02-10.77-.28-13.46-4.55-15.85-6.39-5.54-4.27-8.96-7.67-9.46-10.61-.4-2.34.77-4.52,3.87-5.03Z"/>
    <path class="cls-39" d="M747.7,483.37c15.53-2.57,39.51,22.49,21.45,22.02-10.77-.28-13.46-4.55-15.85-6.39-5.54-4.27-8.96-7.67-9.46-10.61-.4-2.34.77-4.52,3.87-5.03Z"/>
    <path class="cls-39" d="M599.78,599.42c2.43-15.56,33.73-30.47,27.63-13.47-3.64,10.14-8.54,11.36-11.03,13.05-5.79,3.93-10.09,6.11-13.04,5.66-2.34-.36-4.05-2.15-3.56-5.25Z"/>
    <path class="cls-39" d="M680.61,494.34c2.43-15.56,33.73-30.47,27.63-13.47-3.64,10.14-8.54,11.36-11.03,13.05-5.79,3.93-10.09,6.11-13.04,5.66-2.34-.36-4.05-2.15-3.56-5.25Z"/>
    <path class="cls-39" d="M761.44,453.92c2.43-15.56,33.73-30.47,27.63-13.47-3.64,10.14-8.54,11.36-11.03,13.05-5.79,3.93-10.09,6.11-13.04,5.66-2.34-.36-4.05-2.15-3.56-5.25Z"/>
    <path class="cls-39" d="M688.69,284.18c2.43-15.56,33.73-30.47,27.63-13.47-3.64,10.14-8.54,11.36-11.03,13.05-5.79,3.93-10.09,6.11-13.04,5.66-2.34-.36-4.05-2.15-3.56-5.25Z"/>
    <path class="cls-39" d="M486.61,130.6c2.43-15.56,33.73-30.47,27.63-13.47-3.64,10.14-8.54,11.36-11.03,13.05-5.79,3.93-10.09,6.11-13.04,5.66-2.34-.36-4.05-2.15-3.56-5.25Z"/>
    <path class="cls-39" d="M334.21,137.32c15.11-4.41,41.91,17.6,23.93,19.3-10.72,1.01-13.91-2.9-16.5-4.45-6.01-3.58-9.82-6.54-10.66-9.4-.67-2.27.23-4.58,3.24-5.45Z"/>
    <path class="cls-39" d="M129.08,357.76c9.49-12.37,44.02-11.3,30.63.68-7.99,7.15-12.87,6.02-15.86,6.37-6.94.81-11.75.78-14.12-.92-1.89-1.35-2.53-3.66-.65-6.13Z"/>
    <path class="cls-39" d="M104.84,309.26c9.49-12.37,44.02-11.3,30.63.68-7.99,7.15-12.87,6.02-15.86,6.37-6.94.81-11.75.78-14.12-.92-1.89-1.35-2.53-3.66-.65-6.13Z"/>
    <path class="cls-39" d="M670.65,179.93c9.49-12.37,44.02-11.3,30.63.68-7.99,7.15-12.87,6.02-15.86,6.37-6.94.81-11.75.78-14.12-.92-1.89-1.35-2.53-3.66-.65-6.13Z"/>
    <path class="cls-39" d="M40.17,406.26c9.49-12.37,44.02-11.3,30.63.68-7.99,7.15-12.87,6.02-15.86,6.37-6.94.81-11.75.78-14.12-.92-1.89-1.35-2.53-3.66-.65-6.13Z"/>
    <path class="cls-39" d="M733.2,559.41c13.34-2.16,28,21.82,13.2,21.08-8.83-.44-10.18-4.5-11.77-6.28-3.7-4.11-5.83-7.36-5.64-10.14.15-2.21,1.56-4.23,4.22-4.66Z"/>
    <path class="cls-39" d="M654.33,610.82c2.48,13.29-21.13,28.53-20.75,13.71.23-8.84,4.25-10.29,5.99-11.92,4.02-3.8,7.22-6.01,10-5.89,2.21.1,4.27,1.46,4.77,4.1Z"/>
    <path class="cls-39" d="M464.79,620.79c15.53-2.57,39.51,22.49,21.45,22.02-10.77-.28-13.46-4.55-15.85-6.39-5.54-4.27-8.96-7.67-9.46-10.61-.4-2.34.77-4.52,3.87-5.03Z"/>
    <path class="cls-39" d="M707.29,337.88c15.53-2.57,39.51,22.49,21.45,22.02-10.77-.28-13.46-4.55-15.85-6.39-5.54-4.27-8.96-7.67-9.46-10.61-.4-2.34.77-4.52,3.87-5.03Z"/>
    <path class="cls-39" d="M691.12,426.79c15.53-2.57,39.51,22.49,21.45,22.02-10.77-.28-13.46-4.55-15.85-6.39-5.54-4.27-8.96-7.67-9.46-10.61-.4-2.34.77-4.52,3.87-5.03Z"/>
    <path class="cls-39" d="M731.53,265.13c15.53-2.57,39.51,22.49,21.45,22.02-10.77-.28-13.46-4.55-15.85-6.39-5.54-4.27-8.96-7.67-9.46-10.61-.4-2.34.77-4.52,3.87-5.03Z"/>
    <path class="cls-39" d="M602.21,160.05c15.53-2.57,39.51,22.49,21.45,22.02-10.77-.28-13.46-4.55-15.85-6.39-5.54-4.27-8.96-7.67-9.46-10.61-.4-2.34.77-4.52,3.87-5.03Z"/>
    <path class="cls-39" d="M553.71,54.97c15.53-2.57,39.51,22.49,21.45,22.02-10.77-.28-13.46-4.55-15.85-6.39-5.54-4.27-8.96-7.67-9.46-10.61-.4-2.34.77-4.52,3.87-5.03Z"/>
    <path class="cls-39" d="M194.47,164.99c8.15-9.11,34.84-5.62,23.69,2.89-6.65,5.07-10.36,3.8-12.7,3.85-5.43.11-9.15-.28-10.88-1.81-1.38-1.22-1.73-3.11-.11-4.92Z"/>
    <path class="cls-39" d="M113.64,181.15c8.15-9.11,34.84-5.62,23.69,2.89-6.65,5.07-10.36,3.8-12.7,3.85-5.43.11-9.15-.28-10.88-1.81-1.38-1.22-1.73-3.11-.11-4.92Z"/>
    <path class="cls-39" d="M178.3,100.32c8.15-9.11,34.84-5.62,23.69,2.89-6.65,5.07-10.36,3.8-12.7,3.85-5.43.11-9.15-.28-10.88-1.81-1.38-1.22-1.73-3.11-.11-4.92Z"/>
    <path class="cls-39" d="M307.63,116.49c8.15-9.11,34.84-5.62,23.69,2.89-6.65,5.07-10.36,3.8-12.7,3.85-5.43.11-9.15-.28-10.88-1.81-1.38-1.22-1.73-3.11-.11-4.92Z"/>
    <path class="cls-39" d="M404.63,67.99c8.15-9.11,34.84-5.62,23.69,2.89-6.65,5.07-10.36,3.8-12.7,3.85-5.43.11-9.15-.28-10.88-1.81-1.38-1.22-1.73-3.11-.11-4.92Z"/>
    <path class="cls-39" d="M121.72,229.65c8.15-9.11,34.84-5.62,23.69,2.89-6.65,5.07-10.36,3.8-12.7,3.85-5.43.11-9.15-.28-10.88-1.81-1.38-1.22-1.73-3.11-.11-4.92Z"/>
    <path class="cls-39" d="M65.14,229.65c8.15-9.11,34.84-5.62,23.69,2.89-6.65,5.07-10.36,3.8-12.7,3.85-5.43.11-9.15-.28-10.88-1.81-1.38-1.22-1.73-3.11-.11-4.92Z"/>
    <path class="cls-39" d="M243.01,114.93c7.45-7.54,28.05.57,18.3,6.99-5.81,3.82-8.58,1.92-10.43,1.56-4.28-.84-7.17-1.87-8.35-3.69-.94-1.44-1-3.36.48-4.86Z"/>
    <path class="cls-39" d="M331.92,42.19c7.45-7.54,28.05.57,18.3,6.99-5.81,3.82-8.58,1.92-10.43,1.56-4.28-.84-7.17-1.87-8.35-3.69-.94-1.44-1-3.36.48-4.86Z"/>
    <path class="cls-39" d="M291.51,34.1c7.45-7.54,28.05.57,18.3,6.99-5.81,3.82-8.58,1.92-10.43,1.56-4.28-.84-7.17-1.87-8.35-3.69-.94-1.44-1-3.36.48-4.86Z"/>
    <path class="cls-39" d="M331.92,74.52c7.45-7.54,28.05.57,18.3,6.99-5.81,3.82-8.58,1.92-10.43,1.56-4.28-.84-7.17-1.87-8.35-3.69-.94-1.44-1-3.36.48-4.86Z"/>
    <path class="cls-39" d="M469.33,66.44c7.45-7.54,28.05.57,18.3,6.99-5.81,3.82-8.58,1.92-10.43,1.56-4.28-.84-7.17-1.87-8.35-3.69-.94-1.44-1-3.36.48-4.86Z"/>
    <path class="cls-39" d="M397.54,98.7c13.09-7.92,47.87-.78,30.92,6.13-10.11,4.12-14.75,2.34-17.88,2.07-7.27-.63-12.15-1.54-14.09-3.3-1.54-1.4-1.55-3.32,1.05-4.9Z"/>
    <path class="cls-39" d="M98.47,381.61c13.09-7.92,47.87-.78,30.92,6.13-10.11,4.12-14.75,2.34-17.88,2.07-7.27-.63-12.15-1.54-14.09-3.3-1.54-1.4-1.55-3.32,1.05-4.9Z"/>
    <path class="cls-39" d="M58.05,284.61c13.09-7.92,47.87-.78,30.92,6.13-10.11,4.12-14.75,2.34-17.88,2.07-7.27-.63-12.15-1.54-14.09-3.3-1.54-1.4-1.55-3.32,1.05-4.9Z"/>
    <path class="cls-39" d="M448.12,150.39c9.49-1.38,21.46,15.22,10.74,14.6-6.39-.37-7.6-3.17-8.85-4.4-2.91-2.85-4.63-5.11-4.66-7.02-.02-1.52.88-2.9,2.77-3.18Z"/>
    <path class="cls-39" d="M43.97,506.04c9.49-1.38,21.46,15.22,10.74,14.6-6.39-.37-7.6-3.17-8.85-4.4-2.91-2.85-4.63-5.11-4.66-7.02-.02-1.52.88-2.9,2.77-3.18Z"/>
    <path class="cls-39" d="M577.96,661.2c15.53-2.57,39.51,22.49,21.45,22.02-10.77-.28-13.46-4.55-15.85-6.39-5.54-4.27-8.96-7.67-9.46-10.61-.4-2.34.77-4.52,3.87-5.03Z"/>
    <path class="cls-39" d="M76.81,442.96c15.53-2.57,39.51,22.49,21.45,22.02-10.77-.28-13.46-4.55-15.85-6.39-5.54-4.27-8.96-7.67-9.46-10.61-.4-2.34.77-4.52,3.87-5.03Z"/>
    <path class="cls-39" d="M395.76,687.41c9.84-10.38,40.49-4.37,27.21,5.08-7.92,5.64-12.14,3.86-14.84,3.76-6.27-.23-10.55-.96-12.48-2.92-1.53-1.56-1.85-3.85.11-5.92Z"/>
    <path class="cls-39" d="M662.5,356.01c9.84-10.38,40.49-4.37,27.21,5.08-7.92,5.64-12.14,3.86-14.84,3.76-6.27-.23-10.55-.96-12.48-2.92-1.53-1.56-1.85-3.85.11-5.92Z"/>
    <path class="cls-39" d="M727.16,396.42c9.84-10.38,40.49-4.37,27.21,5.08-7.92,5.64-12.14,3.86-14.84,3.76-6.27-.23-10.55-.96-12.48-2.92-1.53-1.56-1.85-3.85.11-5.92Z"/>
    <path class="cls-39" d="M663.56,654.02c10.09-8.44,35.49,2.99,22.59,9.89-7.69,4.12-11.04,1.61-13.35,1.02-5.36-1.36-8.92-2.84-10.27-5.12-1.07-1.81-.98-4.12,1.03-5.8Z"/>
    <path class="cls-39" d="M671.65,314.53c10.09-8.44,35.49,2.99,22.59,9.89-7.69,4.12-11.04,1.61-13.35,1.02-5.36-1.36-8.92-2.84-10.27-5.12-1.07-1.81-.98-4.12,1.03-5.8Z"/>
    <path class="cls-39" d="M751.41,331.76c9.84-10.38,40.49-4.37,27.21,5.08-7.92,5.64-12.14,3.86-14.84,3.76-6.27-.23-10.55-.96-12.48-2.92-1.53-1.56-1.85-3.85.11-5.92Z"/>
    <path class="cls-39" d="M210.03,562.37c20.82,4.41,13.98,43.55-5.59,34.57-11.67-5.35-8.95-11.37-9.15-14.54-.46-7.35.27-12.74,3.67-16.25,2.7-2.79,6.93-4.67,11.07-3.79Z"/>
    <path class="cls-39" d="M161.53,659.37c20.82,4.41,13.98,43.55-5.59,34.57-11.67-5.35-8.95-11.37-9.15-14.54-.46-7.35.27-12.74,3.67-16.25,2.7-2.79,6.93-4.67,11.07-3.79Z"/>
    <path class="cls-39" d="M118.11,519.67c13.56,23-28.17,21.99-36.48-.41-4.95-13.35,2.87-11.41,5.61-12.14,6.36-1.68,11.93-1.76,18.02,1.3,4.84,2.44,10.15,6.66,12.84,11.24Z"/>
    <path class="cls-34" d="M298.54,632.88c-6.05,12.55-21.03,16.77-33.65,11.01-5.94-2.71-25.97-24.82-6.73-34.26,14.76-2.43,28.48,5.98,37.93,16.52.77.86,2.24,6.44,2.45,6.73Z"/>
    <path class="cls-34" d="M72.21,419.47c-6.05,8.06-21.03,10.78-33.65,7.08-5.94-1.74-25.97-15.95-6.73-22.02,14.76-1.56,28.48,3.84,37.93,10.62.77.56,2.24,4.14,2.45,4.33Z"/>
    <path class="cls-34" d="M193.46,168.9c-6.05,8.06-21.03,10.78-33.65,7.08-5.94-1.74-25.97-15.95-6.73-22.02,14.76-1.56,28.48,3.84,37.93,10.62.77.56,2.24,4.14,2.45,4.33Z"/>
    <path class="cls-34" d="M417.96,670.46c-10.01,1.17-22.3-7.81-28.31-19.51-2.83-5.5-6.33-29.81,11.32-20.05,11.3,9.62,16.84,23.29,18.44,34.8.13.94-1.45,4.47-1.45,4.75Z"/>
    <path class="cls-34" d="M547.29,686.62c-10.01,1.17-22.3-7.81-28.31-19.51-2.83-5.5-6.33-29.81,11.32-20.05,11.3,9.62,16.84,23.29,18.44,34.8.13.94-1.45,4.47-1.45,4.75Z"/>
    <path class="cls-34" d="M626.83,601.1c4.49,5.22,3.46,13.18-1.62,18.16-2.39,2.34-16.32,7.84-16.82-3.12,1.8-7.52,8.29-12.54,14.92-15.11.54-.21,3.35.12,3.52.07Z"/>
    <path class="cls-34" d="M764.24,455.6c4.49,5.22,3.46,13.18-1.62,18.16-2.39,2.34-16.32,7.84-16.82-3.12,1.8-7.52,8.29-12.54,14.92-15.11.54-.21,3.35.12,3.52.07Z"/>
    <path class="cls-34" d="M691.5,528.35c4.49,5.22,3.46,13.18-1.62,18.16-2.39,2.34-16.32,7.84-16.82-3.12,1.8-7.52,8.29-12.54,14.92-15.11.54-.21,3.35.12,3.52.07Z"/>
    <path class="cls-34" d="M715.75,358.61c4.49,5.22,3.46,13.18-1.62,18.16-2.39,2.34-16.32,7.84-16.82-3.12,1.8-7.52,8.29-12.54,14.92-15.11.54-.21,3.35.12,3.52.07Z"/>
    <path class="cls-34" d="M691.5,213.11c4.49,5.22,3.46,13.18-1.62,18.16-2.39,2.34-16.32,7.84-16.82-3.12,1.8-7.52,8.29-12.54,14.92-15.11.54-.21,3.35.12,3.52.07Z"/>
    <path class="cls-34" d="M497.5,67.62c4.49,5.22,3.46,13.18-1.62,18.16-2.39,2.34-16.32,7.84-16.82-3.12,1.8-7.52,8.29-12.54,14.92-15.11.54-.21,3.35.12,3.52.07Z"/>
    <path class="cls-34" d="M748.08,229.28c4.49,5.22,3.46,13.18-1.62,18.16-2.39,2.34-16.32,7.84-16.82-3.12,1.8-7.52,8.29-12.54,14.92-15.11.54-.21,3.35.12,3.52.07Z"/>
    <path class="cls-34" d="M723.83,196.95c4.49,5.22,3.46,13.18-1.62,18.16-2.39,2.34-16.32,7.84-16.82-3.12,1.8-7.52,8.29-12.54,14.92-15.11.54-.21,3.35.12,3.52.07Z"/>
    <path class="cls-34" d="M465.17,99.95c4.49,5.22,3.46,13.18-1.62,18.16-2.39,2.34-16.32,7.84-16.82-3.12,1.8-7.52,8.29-12.54,14.92-15.11.54-.21,3.35.12,3.52.07Z"/>
    <path class="cls-34" d="M287.35,51.45c4.49,5.22,3.46,13.18-1.62,18.16-2.39,2.34-16.32,7.84-16.82-3.12,1.8-7.52,8.29-12.54,14.92-15.11.54-.21,3.35.12,3.52.07Z"/>
    <path class="cls-34" d="M222.68,67.62c4.49,5.22,3.46,13.18-1.62,18.16-2.39,2.34-16.32,7.84-16.82-3.12,1.8-7.52,8.29-12.54,14.92-15.11.54-.21,3.35.12,3.52.07Z"/>
    <path class="cls-34" d="M769.07,388.82c3.23,7.99-.82,22.55-8.41,33.02-3.57,4.92-21.44,19.02-18.04-.47,4.76-14.02,13.98-24.98,22.46-31.61.69-.54,3.78-.81,3.99-.94Z"/>
    <path class="cls-34" d="M724.86,453c-6.05,6.13-21.03,8.2-33.65,5.38-5.94-1.32-25.97-12.13-6.73-16.74,14.76-1.19,28.48,2.92,37.93,8.07.77.42,2.24,3.15,2.45,3.29Z"/>
    <path class="cls-34" d="M757.19,299.42c-6.05,6.13-21.03,8.2-33.65,5.38-5.94-1.32-25.97-12.13-6.73-16.74,14.76-1.19,28.48,2.92,37.93,8.07.77.42,2.24,3.15,2.45,3.29Z"/>
    <path class="cls-34" d="M587.45,178.18c-6.05,6.13-21.03,8.2-33.65,5.38-5.94-1.32-25.97-12.13-6.73-16.74,14.76-1.19,28.48,2.92,37.93,8.07.77.42,2.24,3.15,2.45,3.29Z"/>
    <path class="cls-34" d="M700.61,162.01c-6.05,6.13-21.03,8.2-33.65,5.38-5.94-1.32-25.97-12.13-6.73-16.74,14.76-1.19,28.48,2.92,37.93,8.07.77.42,2.24,3.15,2.45,3.29Z"/>
    <path class="cls-34" d="M635.95,137.76c-6.05,6.13-21.03,8.2-33.65,5.38-5.94-1.32-25.97-12.13-6.73-16.74,14.76-1.19,28.48,2.92,37.93,8.07.77.42,2.24,3.15,2.45,3.29Z"/>
    <path class="cls-34" d="M110.98,384.17c1.24,8.53-6.15,21.71-16.01,30.08-4.64,3.93-25.35,13.39-17.41-4.74,7.96-12.49,19.52-20.94,29.33-25.37.8-.36,3.86.11,4.1.03Z"/>
    <path class="cls-34" d="M491.48,58.89c-7.04,1.79-15.48-3.31-19.46-10.93-1.88-3.58-3.86-20.3,8.32-15.16,7.73,5.65,11.35,14.7,12.25,22.62.07.65-1.11,3.28-1.11,3.47Z"/>
    <path class="cls-34" d="M425.79,73.1c-6.05,6.13-21.03,8.2-33.65,5.38-5.94-1.32-25.97-12.13-6.73-16.74,14.76-1.19,28.48,2.92,37.93,8.07.77.42,2.24,3.15,2.45,3.29Z"/>
    <path class="cls-34" d="M441.01,31.82c-3.7,1.7-11.33.49-17.24-2.42-2.78-1.37-11.43-8.59-1.39-7.84,7.43,1.55,13.73,5.14,17.8,8.57.33.28.74,1.61.83,1.7Z"/>
    <path class="cls-34" d="M562.26,136.9c-3.7,1.7-11.33.49-17.24-2.42-2.78-1.37-11.43-8.59-1.39-7.84,7.43,1.55,13.73,5.14,17.8,8.57.33.28.74,1.61.83,1.7Z"/>
    <path class="cls-34" d="M408.68,144.98c-3.7,1.7-11.33.49-17.24-2.42-2.78-1.37-11.43-8.59-1.39-7.84,7.43,1.55,13.73,5.14,17.8,8.57.33.28.74,1.61.83,1.7Z"/>
    <path class="cls-34" d="M482.37,137.76c-6.05,6.13-21.03,8.2-33.65,5.38-5.94-1.32-25.97-12.13-6.73-16.74,14.76-1.19,28.48,2.92,37.93,8.07.77.42,2.24,3.15,2.45,3.29Z"/>
    <path class="cls-34" d="M344.96,105.43c-6.05,6.13-21.03,8.2-33.65,5.38-5.94-1.32-25.97-12.13-6.73-16.74,14.76-1.19,28.48,2.92,37.93,8.07.77.42,2.24,3.15,2.45,3.29Z"/>
    <path class="cls-34" d="M264.13,105.43c-6.05,6.13-21.03,8.2-33.65,5.38-5.94-1.32-25.97-12.13-6.73-16.74,14.76-1.19,28.48,2.92,37.93,8.07.77.42,2.24,3.15,2.45,3.29Z"/>
    <path class="cls-34" d="M575.69,81.8c-.96,8.56-11.44,19.45-23.1,25.05-5.48,2.63-27.91,6.54-15.65-8.99,10.86-10.07,24.18-15.33,34.79-17.13.87-.15,3.71,1.08,3.96,1.07Z"/>
    <path class="cls-34" d="M288.38,145.84c-6.05,6.13-21.03,8.2-33.65,5.38-5.94-1.32-25.97-12.13-6.73-16.74,14.76-1.19,28.48,2.92,37.93,8.07.77.42,2.24,3.15,2.45,3.29Z"/>
    <path class="cls-34" d="M106.37,209.57c-6.35,3.54-15.81.76-21.62-5.58-2.73-2.98-8.93-18.63,4.16-16.79,8.92,3.48,14.74,11.3,17.63,18.73.24.61-.23,3.45-.18,3.64Z"/>
    <path class="cls-34" d="M586.21,569.38c1.54,6.64-2.95,18.93-9.64,27.83-3.14,4.19-17.78,16.32-13.24-.09,4.97-11.84,12.9-21.19,19.84-26.89.57-.47,2.87-.74,3.04-.86Z"/>
    <path class="cls-34" d="M699.37,585.54c1.54,6.64-2.95,18.93-9.64,27.83-3.14,4.19-17.78,16.32-13.24-.09,4.97-11.84,12.9-21.19,19.84-26.89.57-.47,2.87-.74,3.04-.86Z"/>
    <path class="cls-34" d="M669.27,391.58c6.62,1.67,15.48,11.28,20.34,21.3,2.29,4.71,6.38,23.27-6.13,11.73-8.25-9.84-12.94-21.17-14.84-29.94-.16-.72.65-2.89.63-3.09Z"/>
    <path class="cls-34" d="M661.19,254.17c6.62,1.67,15.48,11.28,20.34,21.3,2.29,4.71,6.38,23.27-6.13,11.73-8.25-9.84-12.94-21.17-14.84-29.94-.16-.72.65-2.89.63-3.09Z"/>
    <path class="cls-34" d="M371.64,625.1c-3.05,6.49-13.52,11.08-23.36,10.96-4.63-.06-21.66-5.79-8.64-13.4,10.51-3.78,21.44-2.73,29.48.02.66.23,2.34,2.34,2.52,2.42Z"/>
    <path class="cls-34" d="M491.89,617.67c-5.71,4.33-17.12,3.54-25.78-1.12-4.07-2.2-16.5-15.17-1.44-15.88,11.06,1.52,20.26,7.52,26.11,13.69.48.51.99,3.15,1.11,3.31Z"/>
    <path class="cls-34" d="M123.23,555.53c3.04,11.59-4.4,22.71-15.88,25.98-5.4,1.54-30.84-1.76-23.52-18.67,8.3-9.82,21.97-11.98,34.04-10.35.99.13,5.06,2.96,5.36,3.04Z"/>
    <path class="cls-34" d="M221.5,686.07c3.52,10.08-2.31,20.49-12.27,24.21-4.69,1.75-27.54.62-22.22-14.92,6.68-9.32,18.68-12.2,29.52-11.61.89.05,4.7,2.28,4.97,2.32Z"/>
    <path class="cls-33" d="M218.61,656.27c-.65.19-12.78,1.27-13.46,1.22-12.17-.78-18.6-6.88-22.02-18.35-5.95-19.91-1.24-28.3,21.41-23.25,14.93,3.33,26.61,36.7,14.07,40.38Z"/>
    <path class="cls-33" d="M457.74,647.82c-.6.13-11.91,1.41-12.54,1.43-11.4.39-17.6-2.13-21.17-7.41-6.2-9.17-2.08-13.48,19.26-12.49,14.06.65,26.06,15.91,14.45,18.46Z"/>
    <path class="cls-33" d="M507.78,644.78c-.4.46-8.65,8.3-9.14,8.7-8.81,7.24-15.11,9.18-20.84,7.49-9.95-2.93-9.06-8.6,8.38-20.89,11.5-8.1,29.39-4.24,21.6,4.7Z"/>
    <path class="cls-33" d="M103.63,329.54c-.4.46-8.65,8.3-9.14,8.7-8.81,7.24-15.11,9.18-20.84,7.49-9.95-2.93-9.06-8.6,8.38-20.89,11.5-8.1,29.39-4.24,21.6,4.7Z"/>
    <path class="cls-33" d="M734.11,555.87c-.4.46-8.65,8.3-9.14,8.7-8.81,7.24-15.11,9.18-20.84,7.49-9.95-2.93-9.06-8.6,8.38-20.89,11.5-8.1,29.39-4.24,21.6,4.7Z"/>
    <path class="cls-33" d="M764.83,382.16c-.22.33-5.34,5.18-5.67,5.4-5.89,3.89-11.3,2.97-17.51-1.82-10.77-8.32-12.01-14.38.41-19.74,8.18-3.54,27.03,9.81,22.77,16.17Z"/>
    <path class="cls-33" d="M684,293.24c-.22.33-5.34,5.18-5.67,5.4-5.89,3.89-11.3,2.97-17.51-1.82-10.77-8.32-12.01-14.38.41-19.74,8.18-3.54,27.03,9.81,22.77,16.17Z"/>
    <path class="cls-33" d="M587,163.92c-.22.33-5.34,5.18-5.67,5.4-5.89,3.89-11.3,2.97-17.51-1.82-10.77-8.32-12.01-14.38.41-19.74,8.18-3.54,27.03,9.81,22.77,16.17Z"/>
    <path class="cls-33" d="M215.18,123.5c-.22.33-5.34,5.18-5.67,5.4-5.89,3.89-11.3,2.97-17.51-1.82-10.77-8.32-12.01-14.38.41-19.74,8.18-3.54,27.03,9.81,22.77,16.17Z"/>
    <path class="cls-33" d="M166.69,309.41c-.22.33-5.34,5.18-5.67,5.4-5.89,3.89-11.3,2.97-17.51-1.82-10.77-8.32-12.01-14.38.41-19.74,8.18-3.54,27.03,9.81,22.77,16.17Z"/>
    <path class="cls-33" d="M538.51,91.17c-.22.33-5.34,5.18-5.67,5.4-5.89,3.89-11.3,2.97-17.51-1.82-10.77-8.32-12.01-14.38.41-19.74,8.18-3.54,27.03,9.81,22.77,16.17Z"/>
    <path class="cls-33" d="M312.18,83.08c-.22.33-5.34,5.18-5.67,5.4-5.89,3.89-11.3,2.97-17.51-1.82-10.77-8.32-12.01-14.38.41-19.74,8.18-3.54,27.03,9.81,22.77,16.17Z"/>
    <path class="cls-33" d="M393.01,42.67c-.22.33-5.34,5.18-5.67,5.4-5.89,3.89-11.3,2.97-17.51-1.82-10.77-8.32-12.01-14.38.41-19.74,8.18-3.54,27.03,9.81,22.77,16.17Z"/>
    <path class="cls-33" d="M740.58,325.58c-.22.33-5.34,5.18-5.67,5.4-5.89,3.89-11.3,2.97-17.51-1.82-10.77-8.32-12.01-14.38.41-19.74,8.18-3.54,27.03,9.81,22.77,16.17Z"/>
    <path class="cls-33" d="M327.52,658.18c.13.39,1.43,7.83,1.46,8.25.5,7.55-1.68,11.81-6.38,14.48-8.16,4.63-12.1,2.13-11.49-12.1.4-9.38,13.96-18.2,16.41-10.64Z"/>
    <path class="cls-33" d="M675.09,577.34c.13.39,1.43,7.83,1.46,8.25.5,7.55-1.68,11.81-6.38,14.48-8.16,4.63-12.1,2.13-11.49-12.1.4-9.38,13.96-18.2,16.41-10.64Z"/>
    <path class="cls-33" d="M789.94,410.9c-.03.41-1.49,7.82-1.61,8.22-2.17,7.25-5.48,10.53-10.35,11.47-8.47,1.65-10.92-2-5.52-15.15,3.56-8.66,18.02-12.46,17.48-4.55Z"/>
    <path class="cls-33" d="M284.32,680.45c.38.16,6.83,4.1,7.16,4.35,6.01,4.61,7.77,9.06,6.67,14.35-1.91,9.19-6.38,10.49-16.67.64-6.78-6.49-4.46-22.5,2.85-19.35Z"/>
    <path class="cls-33" d="M559.14,648.12c.38.16,6.83,4.1,7.16,4.35,6.01,4.61,7.77,9.06,6.67,14.35-1.91,9.19-6.38,10.49-16.67.64-6.78-6.49-4.46-22.5,2.85-19.35Z"/>
    <path class="cls-33" d="M621.39,683.92c.37.18,6.75,4.2,7.09,4.45,6.05,4.54,8.17,8.49,7.73,12.83-.76,7.54-4.75,8.15-15.33-1.29-6.97-6.22-6.58-19.46.51-16Z"/>
    <path class="cls-33" d="M572.89,586.92c.37.18,6.75,4.2,7.09,4.45,6.05,4.54,8.17,8.49,7.73,12.83-.76,7.54-4.75,8.15-15.33-1.29-6.97-6.22-6.58-19.46.51-16Z"/>
    <path class="cls-33" d="M637.55,562.67c.37.18,6.75,4.2,7.09,4.45,6.05,4.54,8.17,8.49,7.73,12.83-.76,7.54-4.75,8.15-15.33-1.29-6.97-6.22-6.58-19.46.51-16Z"/>
    <path class="cls-33" d="M686.05,328.27c.37.18,6.75,4.2,7.09,4.45,6.05,4.54,8.17,8.49,7.73,12.83-.76,7.54-4.75,8.15-15.33-1.29-6.97-6.22-6.58-19.46.51-16Z"/>
    <path class="cls-33" d="M653.72,110.02c.37.18,6.75,4.2,7.09,4.45,6.05,4.54,8.17,8.49,7.73,12.83-.76,7.54-4.75,8.15-15.33-1.29-6.97-6.22-6.58-19.46.51-16Z"/>
    <path class="cls-33" d="M669.89,174.69c.37.18,6.75,4.2,7.09,4.45,6.05,4.54,8.17,8.49,7.73,12.83-.76,7.54-4.75,8.15-15.33-1.29-6.97-6.22-6.58-19.46.51-16Z"/>
    <path class="cls-33" d="M532.47,110.02c.37.18,6.75,4.2,7.09,4.45,6.05,4.54,8.17,8.49,7.73,12.83-.76,7.54-4.75,8.15-15.33-1.29-6.97-6.22-6.58-19.46.51-16Z"/>
    <path class="cls-33" d="M265.73,77.69c.37.18,6.75,4.2,7.09,4.45,6.05,4.54,8.17,8.49,7.73,12.83-.76,7.54-4.75,8.15-15.33-1.29-6.97-6.22-6.58-19.46.51-16Z"/>
    <path class="cls-33" d="M168.48,198.21c-.19.36-4.48,6.57-4.74,6.9-4.79,5.86-8.82,7.81-13.14,7.19-7.5-1.07-7.94-5.08,1.92-15.26,6.5-6.71,19.72-5.77,15.96,1.17Z"/>
    <path class="cls-33" d="M79.57,279.04c-.19.36-4.48,6.57-4.74,6.9-4.79,5.86-8.82,7.81-13.14,7.19-7.5-1.07-7.94-5.08,1.92-15.26,6.5-6.71,19.72-5.77,15.96,1.17Z"/>
    <path class="cls-33" d="M241.48,166.6c.37.18,6.75,4.2,7.09,4.45,6.05,4.54,8.17,8.49,7.73,12.83-.76,7.54-4.75,8.15-15.33-1.29-6.97-6.22-6.58-19.46.51-16Z"/>
    <path class="cls-33" d="M128.32,239.35c.37.18,6.75,4.2,7.09,4.45,6.05,4.54,8.17,8.49,7.73,12.83-.76,7.54-4.75,8.15-15.33-1.29-6.97-6.22-6.58-19.46.51-16Z"/>
    <path class="cls-33" d="M128.32,150.44c.37.18,6.75,4.2,7.09,4.45,6.05,4.54,8.17,8.49,7.73,12.83-.76,7.54-4.75,8.15-15.33-1.29-6.97-6.22-6.58-19.46.51-16Z"/>
    <path class="cls-33" d="M322.31,53.44c.37.18,6.75,4.2,7.09,4.45,6.05,4.54,8.17,8.49,7.73,12.83-.76,7.54-4.75,8.15-15.33-1.29-6.97-6.22-6.58-19.46.51-16Z"/>
    <path class="cls-33" d="M370.81,101.94c.37.18,6.75,4.2,7.09,4.45,6.05,4.54,8.17,8.49,7.73,12.83-.76,7.54-4.75,8.15-15.33-1.29-6.97-6.22-6.58-19.46.51-16Z"/>
    <path class="cls-33" d="M483.98,126.19c.37.18,6.75,4.2,7.09,4.45,6.05,4.54,8.17,8.49,7.73,12.83-.76,7.54-4.75,8.15-15.33-1.29-6.97-6.22-6.58-19.46.51-16Z"/>
    <path class="cls-33" d="M516.31,37.28c.37.18,6.75,4.2,7.09,4.45,6.05,4.54,8.17,8.49,7.73,12.83-.76,7.54-4.75,8.15-15.33-1.29-6.97-6.22-6.58-19.46.51-16Z"/>
    <path class="cls-33" d="M653.72,198.94c.37.18,6.75,4.2,7.09,4.45,6.05,4.54,8.17,8.49,7.73,12.83-.76,7.54-4.75,8.15-15.33-1.29-6.97-6.22-6.58-19.46.51-16Z"/>
    <path class="cls-33" d="M636.56,649.15c-.14.38-3.42,7.18-3.64,7.54-3.84,6.52-7.52,9.06-11.89,9.11-7.57.09-8.63-3.81-.43-15.38,5.4-7.62,18.6-8.71,15.96-1.28Z"/>
    <path class="cls-33" d="M650.01,659.04c.08.4,1.04,7.88,1.07,8.3.62,7.54-.1,11.62-2,13.96-3.3,4.05-5.14,1.3-5.63-12.8-.32-9.29,5.1-17.14,6.57-9.45Z"/>
    <path class="cls-33" d="M761.22,510.71c.38.16,6.83,4.1,7.16,4.35,6.01,4.61,7.77,9.06,6.67,14.35-1.91,9.19-6.38,10.49-16.67.64-6.78-6.49-4.46-22.5,2.85-19.35Z"/>
    <path class="cls-33" d="M736.97,421.79c.38.16,6.83,4.1,7.16,4.35,6.01,4.61,7.77,9.06,6.67,14.35-1.91,9.19-6.38,10.49-16.67.64-6.78-6.49-4.46-22.5,2.85-19.35Z"/>
    <path class="cls-33" d="M662.74,618.93c.35.21,6.39,4.74,6.7,5.02,5.66,5.02,7.45,9.12,6.66,13.42-1.37,7.45-5.39,7.73-15.17-2.53-6.45-6.76-4.98-19.93,1.81-15.9Z"/>
    <path class="cls-33" d="M126.56,651.93c-.35-.23-5.79-5.56-6.05-5.9-4.57-6.11-4.28-11.64-.22-17.92,7.05-10.91,12.95-12.08,19.75.74,4.48,8.45-6.64,27.55-13.48,23.08Z"/>
    <path class="cls-33" d="M118.47,425.6c-.35-.23-5.79-5.56-6.05-5.9-4.57-6.11-4.28-11.64-.22-17.92,7.05-10.91,12.95-12.08,19.75.74,4.48,8.45-6.64,27.55-13.48,23.08Z"/>
    <path class="cls-33" d="M102.31,280.11c-.35-.23-5.79-5.56-6.05-5.9-4.57-6.11-4.28-11.64-.22-17.92,7.05-10.91,12.95-12.08,19.75.74,4.48,8.45-6.64,27.55-13.48,23.08Z"/>
    <path class="cls-33" d="M455.82,706.27c-.3-.21-4.98-4.88-5.2-5.18-4.01-5.28-4.02-9.86-.98-14.9,5.27-8.75,10.03-9.46,16.16,1.5,4.04,7.22-4.19,22.6-9.98,18.57Z"/>
    <path class="cls-33" d="M779.14,374.86c-.3-.21-4.98-4.88-5.2-5.18-4.01-5.28-4.02-9.86-.98-14.9,5.27-8.75,10.03-9.46,16.16,1.5,4.04,7.22-4.19,22.6-9.98,18.57Z"/>
    <path class="cls-33" d="M657.9,342.53c-.3-.21-4.98-4.88-5.2-5.18-4.01-5.28-4.02-9.86-.98-14.9,5.27-8.75,10.03-9.46,16.16,1.5,4.04,7.22-4.19,22.6-9.98,18.57Z"/>
    <path class="cls-33" d="M698.31,205.12c-.3-.21-4.98-4.88-5.2-5.18-4.01-5.28-4.02-9.86-.98-14.9,5.27-8.75,10.03-9.46,16.16,1.5,4.04,7.22-4.19,22.6-9.98,18.57Z"/>
    <path class="cls-33" d="M601.32,91.96c-.3-.21-4.98-4.88-5.2-5.18-4.01-5.28-4.02-9.86-.98-14.9,5.27-8.75,10.03-9.46,16.16,1.5,4.04,7.22-4.19,22.6-9.98,18.57Z"/>
    <path class="cls-33" d="M730.65,496.11c-.3-.21-4.98-4.88-5.2-5.18-4.01-5.28-4.02-9.86-.98-14.9,5.27-8.75,10.03-9.46,16.16,1.5,4.04,7.22-4.19,22.6-9.98,18.57Z"/>
    <path class="cls-33" d="M166.97,595.34c-.35-.23-5.79-5.56-6.05-5.9-4.57-6.11-4.28-11.64-.22-17.92,7.05-10.91,12.95-12.08,19.75.74,4.48,8.45-6.64,27.55-13.48,23.08Z"/>
    <path class="cls-33" d="M45.73,490.27c-.35-.23-5.79-5.56-6.05-5.9-4.57-6.11-4.28-11.64-.22-17.92,7.05-10.91,12.95-12.08,19.75.74,4.48,8.45-6.64,27.55-13.48,23.08Z"/>
    <path class="cls-33" d="M86.14,611.51c-.35-.23-5.79-5.56-6.05-5.9-4.57-6.11-4.28-11.64-.22-17.92,7.05-10.91,12.95-12.08,19.75.74,4.48,8.45-6.64,27.55-13.48,23.08Z"/>
    <path class="cls-27" d="M303.32,644.51c.64,1.08,2.47,11.61,2.45,12.24-.7,18.16-18.74,28.53-35.48,23.25.18-1.27-5.67-6.87,6.12-22.63,3.69-4.93,23.19-19.16,26.92-12.85Z"/>
    <path class="cls-27" d="M234.26,608.39c-.51.81-6.99,5.77-7.43,5.97-12.55,5.93-25.94-2.63-28.27-15.84.93-.33,2.65-6.27,17.49-3.84,4.64.76,21.16,8.95,18.2,13.7Z"/>
    <path class="cls-27" d="M725.23,388.8c-.04.89-2.6,8.59-2.81,9.01-6.3,12.36-18.55,15.31-25.03,7.76.5-.84-.53-6.06,10.43-14.19,3.43-2.54,17.66-7.81,17.42-2.58Z"/>
    <path class="cls-27" d="M741.39,518.13c-.04.89-2.6,8.59-2.81,9.01-6.3,12.36-18.55,15.31-25.03,7.76.5-.84-.53-6.06,10.43-14.19,3.43-2.54,17.66-7.81,17.42-2.58Z"/>
    <path class="cls-27" d="M338.88,651.6c-.81.22-8.07-.31-8.48-.42-11.95-3.31-16.16-16.12-10.18-25.65.82.31,5.4-2.43,14.12,7.37,2.73,3.06,9.29,17.39,4.55,18.7Z"/>
    <path class="cls-27" d="M557.12,619.27c-.81.22-8.07-.31-8.48-.42-11.95-3.31-16.16-16.12-10.18-25.65.82.31,5.4-2.43,14.12,7.37,2.73,3.06,9.29,17.39,4.55,18.7Z"/>
    <path class="cls-27" d="M726.87,635.44c-.81.22-8.07-.31-8.48-.42-11.95-3.31-16.16-16.12-10.18-25.65.82.31,5.4-2.43,14.12,7.37,2.73,3.06,9.29,17.39,4.55,18.7Z"/>
    <path class="cls-27" d="M637.89,684.2c-.79.16-8.01-.57-8.42-.68-11.97-3.24-16.64-14.13-11.08-21.89.82.29,5.25-1.82,14.27,6.72,2.82,2.67,9.88,14.93,5.23,15.85Z"/>
    <path class="cls-27" d="M129.18,600.3c-.51.81-6.99,5.77-7.43,5.97-12.55,5.93-25.94-2.63-28.27-15.84.93-.33,2.65-6.27,17.49-3.84,4.64.76,21.16,8.95,18.2,13.7Z"/>
    <path class="cls-27" d="M82.71,552.8c.17.74-.76,7.02-.89,7.37-3.89,10.06-16.59,12.24-25.52,5.88.35-.68-2.05-5.01,7.97-11.48,3.13-2.02,17.44-6.07,18.44-1.77Z"/>
    <path class="cls-27" d="M123.68,468.78c.41.8,1.98,8.75,1.99,9.23.57,13.87-8.83,22.45-18.34,19.07.03-.98-3.49-5.02,2.18-17.48,1.77-3.9,11.78-15.49,14.17-10.82Z"/>
    <path class="cls-27" d="M317.67,121.21c.41.8,1.98,8.75,1.99,9.23.57,13.87-8.83,22.45-18.34,19.07.03-.98-3.49-5.02,2.18-17.48,1.77-3.9,11.78-15.49,14.17-10.82Z"/>
    <path class="cls-27" d="M463.16,48.47c.41.8,1.98,8.75,1.99,9.23.57,13.87-8.83,22.45-18.34,19.07.03-.98-3.49-5.02,2.18-17.48,1.77-3.9,11.78-15.49,14.17-10.82Z"/>
    <path class="cls-27" d="M503.58,662.78c.41.8,1.98,8.75,1.99,9.23.57,13.87-8.83,22.45-18.34,19.07.03-.98-3.49-5.02,2.18-17.48,1.77-3.9,11.78-15.49,14.17-10.82Z"/>
    <path class="cls-27" d="M681.4,363.7c.41.8,1.98,8.75,1.99,9.23.57,13.87-8.83,22.45-18.34,19.07.03-.98-3.49-5.02,2.18-17.48,1.77-3.9,11.78-15.49,14.17-10.82Z"/>
    <path class="cls-27" d="M649.07,153.54c.41.8,1.98,8.75,1.99,9.23.57,13.87-8.83,22.45-18.34,19.07.03-.98-3.49-5.02,2.18-17.48,1.77-3.9,11.78-15.49,14.17-10.82Z"/>
    <path class="cls-27" d="M439.06,119.36c-.51.74-6.77,5.89-7.18,6.13-11.94,7.07-23.96,2.87-25.48-7.11.87-.44,2.76-5.45,16.43-6.36,4.27-.29,19.22,3.03,16.24,7.35Z"/>
    <path class="cls-27" d="M180.41,135.53c-.51.74-6.77,5.89-7.18,6.13-11.94,7.07-23.96,2.87-25.48-7.11.87-.44,2.76-5.45,16.43-6.36,4.27-.29,19.22,3.03,16.24,7.35Z"/>
    <path class="cls-27" d="M107.66,240.61c-.51.74-6.77,5.89-7.18,6.13-11.94,7.07-23.96,2.87-25.48-7.11.87-.44,2.76-5.45,16.43-6.36,4.27-.29,19.22,3.03,16.24,7.35Z"/>
    <path class="cls-27" d="M576.33,96.96c.41.8,1.98,8.75,1.99,9.23.57,13.87-8.83,22.45-18.34,19.07.03-.98-3.49-5.02,2.18-17.48,1.77-3.9,11.78-15.49,14.17-10.82Z"/>
    <path class="cls-27" d="M67.09,323.29c.41.8,1.98,8.75,1.99,9.23.57,13.87-8.83,22.45-18.34,19.07.03-.98-3.49-5.02,2.18-17.48,1.77-3.9,11.78-15.49,14.17-10.82Z"/>
    <path class="cls-27" d="M139.84,379.87c.41.8,1.98,8.75,1.99,9.23.57,13.87-8.83,22.45-18.34,19.07.03-.98-3.49-5.02,2.18-17.48,1.77-3.9,11.78-15.49,14.17-10.82Z"/>
    <path class="cls-27" d="M131.76,193.96c.41.8,1.98,8.75,1.99,9.23.57,13.87-8.83,22.45-18.34,19.07.03-.98-3.49-5.02,2.18-17.48,1.77-3.9,11.78-15.49,14.17-10.82Z"/>
    <path class="cls-27" d="M123.68,274.79c.41.8,1.98,8.75,1.99,9.23.57,13.87-8.83,22.45-18.34,19.07.03-.98-3.49-5.02,2.18-17.48,1.77-3.9,11.78-15.49,14.17-10.82Z"/>
    <path class="cls-27" d="M47.31,426.78c.84.31,7.42,5.05,7.76,5.39,9.88,9.75,8.87,22.44-.4,26.45-.64-.74-5.98-1.29-10.33-14.27-1.36-4.06-1.95-19.36,2.98-17.57Z"/>
    <path class="cls-27" d="M535.91,137.38c.41.8,1.98,8.75,1.99,9.23.57,13.87-8.83,22.45-18.34,19.07.03-.98-3.49-5.02,2.18-17.48,1.77-3.9,11.78-15.49,14.17-10.82Z"/>
    <path class="cls-27" d="M115.59,339.45c.41.8,1.98,8.75,1.99,9.23.57,13.87-8.83,22.45-18.34,19.07.03-.98-3.49-5.02,2.18-17.48,1.77-3.9,11.78-15.49,14.17-10.82Z"/>
    <path class="cls-27" d="M681.4,501.11c.41.8,1.98,8.75,1.99,9.23.57,13.87-8.83,22.45-18.34,19.07.03-.98-3.49-5.02,2.18-17.48,1.77-3.9,11.78-15.49,14.17-10.82Z"/>
    <path class="cls-27" d="M760.34,474.53c-.8.41-8.75,1.98-9.23,1.99-13.87.57-22.45-8.83-19.07-18.34.98.03,5.02-3.49,17.48,2.18,3.9,1.77,15.49,11.78,10.82,14.17Z"/>
    <path class="cls-27" d="M192.54,660.3c-.43,1.32-7.84,10.6-8.38,11.04-15.62,12.78-37.52,5.41-45.45-12.41,1.19-.79,1.54-9.77,23.33-11.57,6.82-.56,33.01,5.19,30.49,12.94Z"/>
    <path class="cls-27" d="M378.1,654.85c.62.73,2.13,7.6,2.08,8-1.45,11.6-20.74,17.09-38.07,12.63.24-.81-5.67-4.77,7.29-14.12,4.06-2.93,25.04-10.8,28.69-6.51Z"/>
    <path class="cls-27" d="M572.1,622.52c.62.73,2.13,7.6,2.08,8-1.45,11.6-20.74,17.09-38.07,12.63.24-.81-5.67-4.77,7.29-14.12,4.06-2.93,25.04-10.8,28.69-6.51Z"/>
  </g>
</svg>