<?xml version="1.0" encoding="UTF-8"?>
<svg xmlns="http://www.w3.org/2000/svg" version="1.1" viewBox="0 0 1980 360">
  <defs>
    <style>
      .cls-1 {
        fill: #231f20;
      }

      .cls-2 {
        isolation: isolate;
      }

      .cls-3 {
        fill: #025a43;
      }
    </style>
  </defs>
  <!-- Generator: Adobe Illustrator 28.7.1, SVG Export Plug-In . SVG Version: 1.2.0 Build 142)  -->
  <g>
    <g id="Layer_1">
      <path class="cls-3" d="M1333.1,284.8h-147.6l45-211.8h145.1l-12.4,58.6h-79.1l-3.8,18h67.5l-11.9,55.2h-67.5l-4.6,21.4h81.7l-12.4,58.6h0ZM1198.3,274.5h126.4l8-37.9h-81.7l9-42.1h67.5l7.4-34.4h-67.5l8.1-38.7h79.2l8-37.8h-123.9l-40.6,191h0Z"/>
      <path class="cls-3" d="M1429.3,284.8h-80.7l45-211.8h78.5c13.8,0,26.2,2.2,36.6,6.5,10.5,4.3,19.4,10.4,26.4,18,7,7.6,12.2,16.7,15.6,26.9,3.3,10,4.9,20.9,4.9,32.4,0,18.4-3.2,35.6-9.6,51.2-6.4,15.6-15.3,29.2-26.7,40.6-11.3,11.3-24.8,20.3-40.1,26.6-15.3,6.4-32.1,9.6-49.9,9.6h0ZM1361.4,274.5h67.9c16.4,0,31.9-3,45.9-8.8,14.1-5.9,26.4-14.1,36.8-24.4,10.3-10.3,18.5-22.8,24.4-37.2,5.9-14.4,8.8-30.2,8.8-47.2s-1.5-20.2-4.4-29.2c-2.9-8.8-7.4-16.6-13.3-23.1-6-6.5-13.6-11.7-22.7-15.5-9.2-3.8-20.1-5.7-32.6-5.7h-70.1l-40.6,191ZM1439.5,236.6h-25.4l24.6-115.3h23.2c11.8,0,21.1,4.2,27.5,12.5,6.1,7.9,9.2,18.3,9.2,31s-1.4,18.5-4.2,27c-2.8,8.6-6.8,16.2-11.9,22.8-5.2,6.7-11.4,12.1-18.7,16-7.3,4-15.5,6-24.3,6h0ZM1426.9,226.2h12.6c7,0,13.6-1.6,19.4-4.8,5.9-3.2,11.1-7.7,15.4-13.2,4.3-5.6,7.8-12.3,10.2-19.7,2.5-7.5,3.7-15.5,3.7-23.8s-2.4-18.6-7-24.6c-4.4-5.7-10.7-8.5-19.3-8.5h-14.8l-20.2,94.6h0Z"/>
      <path class="cls-3" d="M1638.9,285.8c-11,0-21.5-1.9-30.3-5.5-9.7-4-18.3-9.8-25.4-17.3-7.1-7.5-12.7-16.6-16.7-27.3-4-10.6-6-22.7-6-36.2s3.7-34.8,10.8-50.4c7.1-15.5,16.8-29.1,28.8-40.6,11.9-11.4,25.7-20.6,41-27.1,15.3-6.6,31.5-9.9,48-9.9s17.5,1.1,25.4,3.2c8.1,2.1,15.4,5.3,21.9,9.4,6.5,4.2,12.1,9.3,16.6,15.1,4.5,5.9,8,12.6,10.2,20l1.1,3.7-56.9,37.6-1.8-7c-1.8-6.9-5.3-12.2-10.6-16.4-5.4-4.1-11.4-6.1-18.4-6.1s-12.3,1.6-17.9,4.6c-5.8,3.2-11.1,7.5-15.7,13-4.6,5.5-8.3,12-11,19.6-2.7,7.5-4.1,15.7-4.1,24.3s2.5,19.2,7.4,25.4c4.7,5.9,11.2,8.8,20,8.8s18.5-7,25.2-14.1h-23.8c0-.1,8.6-40.5,8.6-40.5h103l-24.1,112.6h-47.2s3.5-17.8,5.6-26c-13,11.1-30.5,21-40.4,23.9-7.1,2-15.2,3.1-23.3,3.1h0ZM1721.9,218l-12,56.5h26l19.7-91.9h-81.9l-4.1,19.6h31l-4.8,8.2c-6.2,9.3-22.5,26.8-40.4,26.8s-21.5-4.3-28.2-12.8c-6.4-8.1-9.6-18.8-9.6-31.9s1.6-19.2,4.7-27.9c3.1-8.7,7.4-16.3,12.8-22.7,5.4-6.4,11.7-11.6,18.7-15.4,7.2-3.9,14.9-5.9,22.9-5.9s17.6,2.8,24.7,8.3c5.3,4.1,9.3,9.2,12,15.3l38.8-25.6c-1.8-4.8-4.2-9.1-7.3-13-3.8-4.9-8.5-9.2-14-12.7-5.6-3.6-11.9-6.3-18.9-8.1-7.1-1.9-14.8-2.8-22.8-2.8-15.1,0-29.9,3.1-43.9,9.1-14.1,6.1-26.9,14.5-37.9,25.1-11,10.6-19.9,23.2-26.5,37.4-6.6,14.2-9.9,29.7-9.9,46.1s1.8,23.1,5.3,32.5c3.5,9.3,8.4,17.3,14.5,23.8,6.1,6.4,13.4,11.4,21.7,14.8,7.5,3.1,16.9,4.7,26.4,4.7s14.2-.9,20.4-2.7c12.9-3.7,34.7-15.6,47.4-33.1,12.7-17.7,15.2-21.6,15.2-21.6h0Z"/>
      <path class="cls-3" d="M1907.8,284.8h-151.2l48.6-211.8h145.1l-12.4,58.6h-79.1l-3.8,18h67.6l-11.9,55.2h-67.5l-4.6,21.4h81.7l-12.4,58.6h0ZM1769.5,274.5h130l8-37.9h-81.7l9-42.1h67.5l7.4-34.4h-67.5l8.1-38.7h79.2l8-37.8h-123.9l-44.2,191h0Z"/>
      <g class="cls-2">
        <g class="cls-2">
          <path class="cls-1" d="M76.9,287.3c-15.9,0-29.3-2.6-40.4-7.7-11.1-5.1-21.2-13.2-30.4-24.2l7.2-7.7c3.6,4.7,7.6,9,11.9,12.7,4.3,3.7,9.1,6.9,14.5,9.6,5.3,2.7,11.2,4.7,17.6,6.1,6.4,1.4,13.6,2.1,21.6,2.1,13.4,0,25.1-2,35.1-6.1,10-4,17.8-9.9,23.4-17.6,5.5-7.7,8.3-16.8,8.3-27.5s-2-15.7-5.9-20.5c-3.9-4.8-9.8-8.8-17.8-12-7.9-3.1-17.9-6.2-30-9.2-11.9-3.1-21.9-6.3-30.1-9.3-8.2-3.1-14.5-7.2-18.8-12.4-4.3-5.2-6.5-12.8-6.5-22.6s1.9-19.2,5.7-27.3c3.8-8.2,9.3-15.2,16.3-21,7.1-5.8,15.4-10.3,25.1-13.4,9.6-3.1,20.3-4.7,32-4.7s16.3.9,23.2,2.7c6.9,1.8,13,4.5,18.5,8.3,5.4,3.7,10.2,8.4,14.2,13.9l-7.2,7.7c-2.7-3.9-5.7-7.4-9-10.3-3.3-3-7.1-5.4-11.2-7.2-4.1-1.9-8.6-3.3-13.3-4.1-4.8-.9-10-1.3-15.8-1.3-14.9,0-27.4,2.5-37.4,7.4-10,4.9-17.6,11.5-22.8,19.8-5.2,8.3-7.7,17.4-7.7,27.5s1.8,14,5.4,18.3c3.6,4.3,9.1,7.9,16.5,10.6,7.4,2.8,16.9,5.6,28.5,8.6,13,3.4,23.8,6.8,32.5,10.3,8.7,3.5,15.2,8.2,19.6,14,4.4,5.8,6.6,13.8,6.6,24.1s-2.1,19.9-6.2,27.8c-4.1,7.9-9.7,14.4-16.9,19.7-7.2,5.2-15.6,9.1-25.2,11.5-9.7,2.5-20.1,3.7-31.4,3.7Z"/>
        </g>
        <g class="cls-2">
          <path class="cls-1" d="M206.8,76h10l-20.2,97.8h127.9l20.2-97.8h9.7l-43.3,209.8h-9.7l21.2-102.6h-127.9l-21.2,102.6h-10l43.3-209.8Z"/>
        </g>
        <g class="cls-2">
          <path class="cls-1" d="M453.9,76h8.6l39.6,209.8h-10.6l-13.2-72.4h-96.8l-43.1,72.4h-10.9l126.4-209.8ZM476.6,204.6l-21-115.6-68.8,115.6h89.9Z"/>
        </g>
        <g class="cls-2">
          <path class="cls-1" d="M517,285.8l43.3-209.8h79.7c9.2,0,17,2.6,23.5,7.7,6.5,5.1,11.5,11.7,14.9,19.8,3.4,8.1,5.2,16.6,5.2,25.4s-1.6,17.5-4.9,26c-3.3,8.5-7.7,16.2-13.5,23.2-5.7,7-12.3,12.8-19.6,17.4-7.4,4.6-15.2,7.3-23.7,8.1l31.2,82.2h-11.5l-31-81h-67.1l-16.6,81h-10ZM617,195.4c7.8,0,15.1-1.9,21.9-5.8,6.8-3.8,12.8-9,18.1-15.4,5.3-6.4,9.3-13.4,12.2-21.1,2.9-7.7,4.3-15.3,4.3-22.8s-1.5-15.5-4.4-22.2c-3-6.7-7.1-12.2-12.5-16.4-5.4-4.2-11.7-6.4-18.9-6.4h-69.4l-22.6,109.9h71.4Z"/>
        </g>
        <g class="cls-2">
          <path class="cls-1" d="M727.5,76h77.7c9.6,0,17.7,2.6,24.5,7.7,6.8,5.1,11.9,11.7,15.3,19.7,3.4,8,5.2,16.4,5.2,25.3s-1.8,18.4-5.3,27.5c-3.5,9.1-8.5,17.3-14.8,24.7-6.3,7.4-13.6,13.3-21.9,17.6-8.3,4.3-17.1,6.5-26.2,6.5h-71.1l-16.6,81h-10l43.3-209.8ZM783.6,195.4c7.8,0,15.2-2,22.2-6.1,7-4,13-9.3,18.1-15.8,5.1-6.5,9.1-13.6,12-21.4,3-7.8,4.4-15.5,4.4-23.2s-1.5-15.1-4.6-21.6c-3.1-6.5-7.3-11.8-12.6-15.8-5.4-4-11.7-6.1-18.9-6.1h-68.8l-22.6,109.9h70.8Z"/>
        </g>
      </g>
      <g class="cls-2">
        <g class="cls-2">
          <path class="cls-1" d="M916.9,287.3c-15,0-26.9-3.1-35.8-9.3-8.9-6.2-15.2-14.5-18.9-24.8-3.7-10.3-5.6-21.7-5.6-34.1s.3-12.6,1-18.9c.6-6.3,1.6-12.6,2.9-18.9l21.1-105.2h9.4l-20.8,105.2c-1.3,6.1-2.3,12.2-3.1,18.2-.7,6-1.1,12-1.1,17.9,0,11.2,1.6,21.4,4.7,30.6,3.1,9.2,8.5,16.4,16.1,21.7,7.6,5.3,17.9,8,30.8,8s25.3-2.8,35.3-8.3c10-5.5,18.5-13,25.4-22.3,6.9-9.4,12.6-19.8,17.1-31.2,4.4-11.4,7.9-23,10.3-34.6l20.8-105.2h9.4l-20.8,105.2c-2.8,14.2-6.8,27.7-12.1,40.5-5.3,12.8-11.9,24.1-19.7,33.8-7.9,9.8-17.3,17.5-28.3,23.2-11,5.7-23.8,8.6-38.2,8.6Z"/>
        </g>
      </g>
      <g class="cls-2">
        <g class="cls-2">
          <path class="cls-1" d="M1019.8,285.8l43.3-209.8h79.7c9.2,0,17,2.6,23.5,7.7,6.5,5.1,11.5,11.7,14.9,19.8,3.4,8.1,5.2,16.6,5.2,25.4s-1.6,17.5-4.9,26c-3.3,8.5-7.7,16.2-13.5,23.2-5.7,7-12.3,12.8-19.6,17.4-7.4,4.6-15.2,7.3-23.7,8.1l31.2,82.2h-11.5l-31-81h-67.1l-16.6,81h-10ZM1119.9,195.4c7.8,0,15.1-1.9,21.9-5.8,6.8-3.8,12.8-9,18.1-15.4,5.3-6.4,9.3-13.4,12.2-21.1,2.9-7.7,4.3-15.3,4.3-22.8s-1.5-15.5-4.4-22.2c-3-6.7-7.1-12.2-12.5-16.4-5.4-4.2-11.7-6.4-18.9-6.4h-69.4l-22.6,109.9h71.4Z"/>
        </g>
      </g>
    </g>
  </g>
</svg>