<?xml version="1.0" encoding="UTF-8"?>
<svg id="Layer_1" xmlns="http://www.w3.org/2000/svg" viewBox="0 0 144 144">
  <defs>
    <style>
      .cls-1 {
        fill: none;
        stroke: #000;
        stroke-miterlimit: 10;
        stroke-width: 6.74px;
      }
    </style>
  </defs>
  <polyline class="cls-1" points="99.31 85.51 127.95 81.1 132.37 109.74"/>
  <polyline class="cls-1" points="36.88 71.96 8.24 76.38 3.82 47.74"/>
  <g>
    <path d="M53.51,7.49L6.59,71.5l.66,4.26,7.51-1.16L60.3,12.47c1.23-1.67,3.58-2.04,5.26-.81l67.59,49.54c1.67,1.23,2.03,3.58.81,5.26l-4.66,6.36,5.34-.82.99,6.43,5.12-6.99c3.97-5.42,2.8-13.06-2.62-17.03L70.53,4.87c-5.42-3.97-13.06-2.79-17.03,2.62Z"/>
    <path d="M129,79.68l-5.34.82-39.25,53.55c-1.23,1.67-3.58,2.04-5.26.81L11.57,85.32c-1.04-.76-1.57-1.96-1.53-3.17l-8.35,1.29c.32,3.34,1.99,6.54,4.91,8.67l67.59,49.54c5.42,3.97,13.06,2.79,17.03-2.62l38.78-52.91-.99-6.43Z"/>
  </g>
</svg>